%TF.GenerationSoftware,KiCad,Pcbnew,9.0.3*%
%TF.CreationDate,2025-11-17T09:12:33+01:00*%
%TF.ProjectId,PCB_BLE_Speaker,5043425f-424c-4455-9f53-7065616b6572,R.Casas*%
%TF.SameCoordinates,Original*%
%TF.FileFunction,Copper,L3,Inr*%
%TF.FilePolarity,Positive*%
%FSLAX46Y46*%
G04 Gerber Fmt 4.6, Leading zero omitted, Abs format (unit mm)*
G04 Created by KiCad (PCBNEW 9.0.3) date 2025-11-17 09:12:33*
%MOMM*%
%LPD*%
G01*
G04 APERTURE LIST*
G04 Aperture macros list*
%AMRoundRect*
0 Rectangle with rounded corners*
0 $1 Rounding radius*
0 $2 $3 $4 $5 $6 $7 $8 $9 X,Y pos of 4 corners*
0 Add a 4 corners polygon primitive as box body*
4,1,4,$2,$3,$4,$5,$6,$7,$8,$9,$2,$3,0*
0 Add four circle primitives for the rounded corners*
1,1,$1+$1,$2,$3*
1,1,$1+$1,$4,$5*
1,1,$1+$1,$6,$7*
1,1,$1+$1,$8,$9*
0 Add four rect primitives between the rounded corners*
20,1,$1+$1,$2,$3,$4,$5,0*
20,1,$1+$1,$4,$5,$6,$7,0*
20,1,$1+$1,$6,$7,$8,$9,0*
20,1,$1+$1,$8,$9,$2,$3,0*%
G04 Aperture macros list end*
%TA.AperFunction,ComponentPad*%
%ADD10RoundRect,0.250000X0.625000X-0.350000X0.625000X0.350000X-0.625000X0.350000X-0.625000X-0.350000X0*%
%TD*%
%TA.AperFunction,ComponentPad*%
%ADD11O,1.750000X1.200000*%
%TD*%
%TA.AperFunction,ComponentPad*%
%ADD12R,1.308000X1.308000*%
%TD*%
%TA.AperFunction,ComponentPad*%
%ADD13C,1.308000*%
%TD*%
%TA.AperFunction,ComponentPad*%
%ADD14O,2.416000X1.208000*%
%TD*%
%TA.AperFunction,HeatsinkPad*%
%ADD15O,1.000000X2.100000*%
%TD*%
%TA.AperFunction,HeatsinkPad*%
%ADD16O,1.000000X1.800000*%
%TD*%
%TA.AperFunction,ComponentPad*%
%ADD17RoundRect,0.250000X0.725000X-0.600000X0.725000X0.600000X-0.725000X0.600000X-0.725000X-0.600000X0*%
%TD*%
%TA.AperFunction,ComponentPad*%
%ADD18O,1.950000X1.700000*%
%TD*%
%TA.AperFunction,ComponentPad*%
%ADD19RoundRect,0.250000X-0.625000X0.350000X-0.625000X-0.350000X0.625000X-0.350000X0.625000X0.350000X0*%
%TD*%
%TA.AperFunction,ViaPad*%
%ADD20C,0.600000*%
%TD*%
%TA.AperFunction,ViaPad*%
%ADD21C,1.200000*%
%TD*%
%TA.AperFunction,ViaPad*%
%ADD22C,2.500000*%
%TD*%
%TA.AperFunction,Conductor*%
%ADD23C,0.300000*%
%TD*%
%TA.AperFunction,Conductor*%
%ADD24C,0.200000*%
%TD*%
%TA.AperFunction,Conductor*%
%ADD25C,0.500000*%
%TD*%
G04 APERTURE END LIST*
D10*
%TO.N,/Speaker_Driver/OUTP_2*%
%TO.C,J102*%
X122190000Y-43520000D03*
D11*
%TO.N,/Speaker_Driver/OUTN_2*%
X122190000Y-41520000D03*
%TD*%
D12*
%TO.N,Net-(U503-VI)*%
%TO.C,S501*%
X88500000Y-58020000D03*
D13*
%TO.N,/Battery_Charger/P_VBUS*%
X88500000Y-62020000D03*
%TO.N,unconnected-(S501-Pad3)*%
X88500000Y-66020000D03*
D14*
%TO.N,N/C*%
X88500000Y-55870000D03*
X88500000Y-68170000D03*
%TD*%
D15*
%TO.N,Net-(J201-SHIELD)*%
%TO.C,J201*%
X100680000Y-93415000D03*
D16*
X100680000Y-97595000D03*
D15*
X109320000Y-93415000D03*
D16*
X109320000Y-97595000D03*
%TD*%
D17*
%TO.N,VBAT*%
%TO.C,J103*%
X88500000Y-80520000D03*
D18*
%TO.N,GNDREF*%
X88500000Y-78020000D03*
%TO.N,VBAT*%
X88500000Y-75520000D03*
%TD*%
D10*
%TO.N,/Speaker_Driver/OUTP_1*%
%TO.C,J101*%
X122190000Y-56520000D03*
D11*
%TO.N,/Speaker_Driver/OUTN_1*%
X122190000Y-54520000D03*
%TD*%
D19*
%TO.N,VBAT*%
%TO.C,J104*%
X88500000Y-90020000D03*
D11*
%TO.N,GNDREF*%
X88500000Y-92020000D03*
%TD*%
D20*
%TO.N,GNDREF*%
X120000000Y-42270000D03*
X101150000Y-67620000D03*
X118500000Y-55270000D03*
X96000000Y-54520000D03*
X101000000Y-44520000D03*
X114500000Y-95770000D03*
X90000000Y-47520000D03*
X116500000Y-44020000D03*
X111500000Y-60520000D03*
X108900000Y-69920000D03*
X92500000Y-64020000D03*
X97250000Y-90520000D03*
X107000000Y-80770000D03*
X101000000Y-60520000D03*
X111300000Y-52020000D03*
X123500000Y-39770000D03*
X116200000Y-59020000D03*
X93500000Y-44520000D03*
X105000000Y-57020000D03*
X115700000Y-50020000D03*
X101500000Y-38020000D03*
X101000000Y-54270000D03*
X108900000Y-67120000D03*
X120000000Y-55270000D03*
X121800000Y-78020000D03*
X115500000Y-63020000D03*
X105500000Y-60770000D03*
X109000000Y-72020000D03*
X93500000Y-51020000D03*
X116250000Y-56770000D03*
X118500000Y-42270000D03*
X104000000Y-73770000D03*
X116500000Y-39520000D03*
X109500000Y-45770000D03*
X104750000Y-51520000D03*
X108300000Y-91820000D03*
D21*
X114190000Y-54520000D03*
D20*
X121700000Y-85520000D03*
X87006360Y-60016505D03*
X116200000Y-46020000D03*
X86500000Y-52020000D03*
X95087500Y-69320000D03*
X123400000Y-82920000D03*
X86750000Y-71020000D03*
X123000000Y-98520000D03*
X123000000Y-37520000D03*
X93250000Y-82270000D03*
X101750000Y-91520000D03*
X106250000Y-86770000D03*
X109200000Y-88320000D03*
X120000000Y-48770000D03*
X107000000Y-47770000D03*
X123500000Y-52770000D03*
X106300000Y-63020000D03*
X110900000Y-76120000D03*
X103750000Y-82770000D03*
X122500000Y-87520000D03*
X114200000Y-88420000D03*
X108900000Y-65220000D03*
X116500000Y-52520000D03*
X111400000Y-39520000D03*
X96000000Y-60020000D03*
D22*
X114000000Y-83020000D03*
D20*
X110500000Y-49020000D03*
D21*
X114190000Y-41710000D03*
D20*
X123000000Y-70020000D03*
X118800000Y-88120000D03*
X93500000Y-38020000D03*
X114400000Y-74820000D03*
X99000000Y-86770000D03*
X123500000Y-45270000D03*
X95500000Y-94520000D03*
X91500000Y-56520000D03*
X115600000Y-37020000D03*
X106750000Y-91520000D03*
X101000000Y-91520000D03*
X93000000Y-76770000D03*
X112900000Y-86720000D03*
D22*
X97500000Y-41520000D03*
D20*
X123500000Y-58270000D03*
%TO.N,/MCU/VDD_3V3*%
X119000000Y-86820000D03*
X114100000Y-67520000D03*
%TO.N,VBAT*%
X103500000Y-79020000D03*
X98000000Y-79020000D03*
%TO.N,/Simple_USB/CC1*%
X104000000Y-94020000D03*
X111000000Y-98520000D03*
%TO.N,/Simple_USB/D-*%
X105600000Y-91620000D03*
X104250930Y-91691921D03*
%TO.N,/Simple_USB/CC2*%
X106500000Y-94020000D03*
X111500000Y-97020000D03*
%TO.N,/MCU/~{SD_MODE}_1*%
X111500000Y-55920000D03*
X104700000Y-49920000D03*
%TO.N,/MCU/~{SD_MODE}_2*%
X111300000Y-43420000D03*
X103701000Y-49920000D03*
%TO.N,ESP32_TX*%
X102400000Y-40720000D03*
X110299293Y-81420707D03*
%TO.N,ESP32_RX*%
X109798101Y-82044254D03*
X102400000Y-41520000D03*
%TO.N,/MCU/SUSPEND*%
X99100000Y-49420000D03*
X105700000Y-76120000D03*
%TO.N,/MCU/~{SUSPEND}*%
X105700000Y-75120000D03*
X99900000Y-49420000D03*
%TO.N,/MCU/VIO*%
X117300000Y-82020000D03*
X123700000Y-75020000D03*
X114745000Y-86420000D03*
%TO.N,/Battery_Charger/P_VBUS*%
X93500000Y-52820000D03*
X119300000Y-90520000D03*
X105700000Y-85420000D03*
%TO.N,/MCU/LRCLK*%
X114441000Y-38661000D03*
X114500000Y-51720000D03*
%TO.N,/MCU/BCLK*%
X113440000Y-38660000D03*
X113300000Y-51720000D03*
%TO.N,/MCU/DIN*%
X111700000Y-53320000D03*
X111400000Y-40720000D03*
X106200000Y-45520000D03*
%TO.N,Net-(U502-~{RTS})*%
X111600293Y-80420000D03*
X114400000Y-79220000D03*
%TO.N,Net-(U502-~{CTS})*%
X112536120Y-80071000D03*
X115400000Y-79220000D03*
%TO.N,Net-(U502-~{DSR})*%
X109000000Y-82720000D03*
X110900000Y-78220000D03*
%TO.N,/MCU/VDD_CP*%
X116500000Y-86220000D03*
X118600000Y-79020000D03*
%TD*%
D23*
%TO.N,/MCU/~{SD_MODE}_1*%
X104700000Y-49920000D02*
X105500000Y-49920000D01*
X105500000Y-49920000D02*
X111500000Y-55920000D01*
%TO.N,/MCU/~{SD_MODE}_2*%
X103701000Y-49920000D02*
X103701000Y-49319000D01*
X109600000Y-43420000D02*
X111300000Y-43420000D01*
X103701000Y-49319000D02*
X109600000Y-43420000D01*
%TO.N,ESP32_TX*%
X102520654Y-40720000D02*
X103051000Y-41250346D01*
X107501000Y-78833134D02*
X110088573Y-81420707D01*
X103051000Y-41250346D02*
X103051000Y-70371000D01*
X103051000Y-70371000D02*
X107501000Y-74821000D01*
X110088573Y-81420707D02*
X110299293Y-81420707D01*
X107501000Y-74821000D02*
X107501000Y-78833134D01*
X102400000Y-40720000D02*
X102520654Y-40720000D01*
%TO.N,ESP32_RX*%
X109798101Y-82044254D02*
X109798101Y-81838755D01*
X107000000Y-75420000D02*
X102400000Y-70820000D01*
X109798101Y-81838755D02*
X107000000Y-79040654D01*
X107000000Y-79040654D02*
X107000000Y-75420000D01*
X102400000Y-70820000D02*
X102400000Y-41520000D01*
%TO.N,/MCU/SUSPEND*%
X105700000Y-76120000D02*
X103350000Y-76120000D01*
X99100000Y-71870000D02*
X99100000Y-49420000D01*
X103350000Y-76120000D02*
X99100000Y-71870000D01*
%TO.N,/MCU/~{SUSPEND}*%
X103600000Y-75120000D02*
X105700000Y-75120000D01*
X99900000Y-49420000D02*
X99900000Y-71420000D01*
X99900000Y-71420000D02*
X103600000Y-75120000D01*
%TO.N,/MCU/VIO*%
X117300000Y-83020000D02*
X117300000Y-82020000D01*
X122000000Y-76720000D02*
X123700000Y-75020000D01*
X114745000Y-85575000D02*
X117300000Y-83020000D01*
X117300000Y-82020000D02*
X117300000Y-79220000D01*
X117300000Y-79220000D02*
X119800000Y-76720000D01*
X114745000Y-86420000D02*
X114745000Y-85575000D01*
D24*
X123800000Y-75120000D02*
X123700000Y-75020000D01*
D23*
X119800000Y-76720000D02*
X122000000Y-76720000D01*
D25*
%TO.N,/Battery_Charger/P_VBUS*%
X108600000Y-85420000D02*
X105700000Y-85420000D01*
X113700000Y-90520000D02*
X108600000Y-85420000D01*
X119300000Y-90520000D02*
X113700000Y-90520000D01*
D23*
%TO.N,/MCU/LRCLK*%
X113000000Y-50220000D02*
X114500000Y-51720000D01*
X114441000Y-38661000D02*
X113000000Y-40102000D01*
X113000000Y-40102000D02*
X113000000Y-50220000D01*
%TO.N,/MCU/BCLK*%
X112500000Y-39600000D02*
X112500000Y-50920000D01*
X113440000Y-38660000D02*
X112500000Y-39600000D01*
X112500000Y-50920000D02*
X113300000Y-51720000D01*
%TO.N,/MCU/DIN*%
X106200000Y-45520000D02*
X107900000Y-43820000D01*
X107900000Y-41720000D02*
X108900000Y-40720000D01*
X107900000Y-43820000D02*
X107900000Y-41720000D01*
X108900000Y-40720000D02*
X111400000Y-40720000D01*
X111951000Y-53069000D02*
X111951000Y-41271000D01*
X111951000Y-41271000D02*
X111400000Y-40720000D01*
X111700000Y-53320000D02*
X111951000Y-53069000D01*
%TO.N,Net-(U502-~{RTS})*%
X111600293Y-80420000D02*
X111600293Y-80086173D01*
X111600293Y-80086173D02*
X112566466Y-79120000D01*
X114000000Y-79120000D02*
X114300000Y-79120000D01*
X112566466Y-79120000D02*
X114000000Y-79120000D01*
X114300000Y-79120000D02*
X114400000Y-79220000D01*
%TO.N,Net-(U502-~{CTS})*%
X114549000Y-80071000D02*
X115400000Y-79220000D01*
X112536120Y-80071000D02*
X114549000Y-80071000D01*
%TO.N,Net-(U502-~{DSR})*%
X110950293Y-81869707D02*
X110950293Y-78270293D01*
X110100000Y-82720000D02*
X110950293Y-81869707D01*
X109000000Y-82720000D02*
X110100000Y-82720000D01*
X110950293Y-78270293D02*
X110900000Y-78220000D01*
%TO.N,/MCU/VDD_CP*%
X118600000Y-79020000D02*
X118600000Y-84120000D01*
X118600000Y-84120000D02*
X116500000Y-86220000D01*
%TD*%
%TA.AperFunction,Conductor*%
%TO.N,GNDREF*%
G36*
X123942539Y-36540185D02*
G01*
X123988294Y-36592989D01*
X123999500Y-36644500D01*
X123999500Y-74112297D01*
X123979815Y-74179336D01*
X123927011Y-74225091D01*
X123857853Y-74235035D01*
X123851309Y-74233914D01*
X123778845Y-74219500D01*
X123778842Y-74219500D01*
X123621158Y-74219500D01*
X123621155Y-74219500D01*
X123466510Y-74250261D01*
X123466498Y-74250264D01*
X123320827Y-74310602D01*
X123320814Y-74310609D01*
X123189712Y-74398209D01*
X123078208Y-74509714D01*
X123078207Y-74509716D01*
X123033613Y-74576454D01*
X123028079Y-74584091D01*
X123006260Y-74611907D01*
X123006258Y-74611910D01*
X122802383Y-74966016D01*
X122767611Y-75026412D01*
X122747830Y-75052222D01*
X121766873Y-76033181D01*
X121705550Y-76066666D01*
X121679192Y-76069500D01*
X119735929Y-76069500D01*
X119610261Y-76094497D01*
X119610255Y-76094499D01*
X119491874Y-76143534D01*
X119385326Y-76214726D01*
X116794724Y-78805328D01*
X116733336Y-78897204D01*
X116723535Y-78911871D01*
X116674499Y-79030255D01*
X116674497Y-79030261D01*
X116649500Y-79155928D01*
X116649500Y-81323933D01*
X116645236Y-81356171D01*
X116520892Y-81817998D01*
X116516963Y-81833570D01*
X116516791Y-81834301D01*
X116516790Y-81834309D01*
X116505492Y-81903504D01*
X116505395Y-81905253D01*
X116503207Y-81922518D01*
X116499500Y-81941158D01*
X116499500Y-82098842D01*
X116499500Y-82098844D01*
X116499499Y-82098844D01*
X116515162Y-82177580D01*
X116516650Y-82186901D01*
X116520887Y-82221984D01*
X116641656Y-82670533D01*
X116640078Y-82740385D01*
X116609601Y-82790452D01*
X114239727Y-85160325D01*
X114239721Y-85160332D01*
X114173486Y-85259462D01*
X114173486Y-85259464D01*
X114168533Y-85266875D01*
X114119499Y-85385255D01*
X114119497Y-85385261D01*
X114094500Y-85510928D01*
X114094500Y-85723933D01*
X114090236Y-85756171D01*
X113965892Y-86217998D01*
X113961963Y-86233570D01*
X113961791Y-86234301D01*
X113961790Y-86234309D01*
X113950492Y-86303504D01*
X113950395Y-86305253D01*
X113948207Y-86322519D01*
X113944500Y-86341160D01*
X113944500Y-86498846D01*
X113975261Y-86653489D01*
X113975264Y-86653501D01*
X114035602Y-86799172D01*
X114035609Y-86799185D01*
X114123210Y-86930288D01*
X114123213Y-86930292D01*
X114234707Y-87041786D01*
X114234711Y-87041789D01*
X114365814Y-87129390D01*
X114365827Y-87129397D01*
X114511498Y-87189735D01*
X114511503Y-87189737D01*
X114666153Y-87220499D01*
X114666156Y-87220500D01*
X114666158Y-87220500D01*
X114823844Y-87220500D01*
X114823845Y-87220499D01*
X114978497Y-87189737D01*
X115124179Y-87129394D01*
X115255289Y-87041789D01*
X115366789Y-86930289D01*
X115454394Y-86799179D01*
X115514737Y-86653497D01*
X115531787Y-86567780D01*
X115564171Y-86505870D01*
X115624887Y-86471296D01*
X115694656Y-86475035D01*
X115751329Y-86515901D01*
X115767965Y-86544519D01*
X115790604Y-86599176D01*
X115790609Y-86599185D01*
X115878210Y-86730288D01*
X115878213Y-86730292D01*
X115989707Y-86841786D01*
X115989711Y-86841789D01*
X116120814Y-86929390D01*
X116120827Y-86929397D01*
X116266498Y-86989735D01*
X116266503Y-86989737D01*
X116421153Y-87020499D01*
X116421156Y-87020500D01*
X116421158Y-87020500D01*
X116578844Y-87020500D01*
X116578845Y-87020499D01*
X116733497Y-86989737D01*
X116879179Y-86929394D01*
X117010289Y-86841789D01*
X117110925Y-86741153D01*
X118199500Y-86741153D01*
X118199500Y-86898846D01*
X118230261Y-87053489D01*
X118230264Y-87053501D01*
X118290602Y-87199172D01*
X118290609Y-87199185D01*
X118378210Y-87330288D01*
X118378213Y-87330292D01*
X118489707Y-87441786D01*
X118489711Y-87441789D01*
X118620814Y-87529390D01*
X118620827Y-87529397D01*
X118766498Y-87589735D01*
X118766503Y-87589737D01*
X118921153Y-87620499D01*
X118921156Y-87620500D01*
X118921158Y-87620500D01*
X119078844Y-87620500D01*
X119078845Y-87620499D01*
X119233497Y-87589737D01*
X119379179Y-87529394D01*
X119510289Y-87441789D01*
X119621789Y-87330289D01*
X119709394Y-87199179D01*
X119769737Y-87053497D01*
X119800500Y-86898842D01*
X119800500Y-86741158D01*
X119800500Y-86741155D01*
X119800499Y-86741153D01*
X119783063Y-86653497D01*
X119769737Y-86586503D01*
X119714645Y-86453497D01*
X119709397Y-86440827D01*
X119709390Y-86440814D01*
X119621789Y-86309711D01*
X119621786Y-86309707D01*
X119510292Y-86198213D01*
X119510288Y-86198210D01*
X119379185Y-86110609D01*
X119379172Y-86110602D01*
X119233501Y-86050264D01*
X119233489Y-86050261D01*
X119078845Y-86019500D01*
X119078842Y-86019500D01*
X118921158Y-86019500D01*
X118921155Y-86019500D01*
X118766510Y-86050261D01*
X118766498Y-86050264D01*
X118620827Y-86110602D01*
X118620814Y-86110609D01*
X118489711Y-86198210D01*
X118489707Y-86198213D01*
X118378213Y-86309707D01*
X118378210Y-86309711D01*
X118290609Y-86440814D01*
X118290602Y-86440827D01*
X118230264Y-86586498D01*
X118230261Y-86586510D01*
X118199500Y-86741153D01*
X117110925Y-86741153D01*
X117121789Y-86730289D01*
X117166409Y-86663508D01*
X117171930Y-86655889D01*
X117193740Y-86628089D01*
X117432386Y-86213585D01*
X117452160Y-86187784D01*
X119105276Y-84534670D01*
X119176465Y-84428127D01*
X119225501Y-84309744D01*
X119250500Y-84184069D01*
X119250500Y-79716064D01*
X119254764Y-79683826D01*
X119266083Y-79641786D01*
X119379111Y-79221985D01*
X119383038Y-79206419D01*
X119383208Y-79205697D01*
X119394506Y-79136499D01*
X119394505Y-79136488D01*
X119394602Y-79134771D01*
X119396793Y-79117475D01*
X119399330Y-79104725D01*
X119400500Y-79098842D01*
X119400500Y-78941158D01*
X119400500Y-78941155D01*
X119400499Y-78941153D01*
X119380543Y-78840827D01*
X119369737Y-78786503D01*
X119337929Y-78709711D01*
X119309397Y-78640827D01*
X119309390Y-78640814D01*
X119221789Y-78509711D01*
X119221786Y-78509707D01*
X119163693Y-78451614D01*
X119130208Y-78390291D01*
X119135192Y-78320599D01*
X119163693Y-78276252D01*
X120033127Y-77406819D01*
X120094450Y-77373334D01*
X120120808Y-77370500D01*
X122064071Y-77370500D01*
X122148615Y-77353682D01*
X122189744Y-77345501D01*
X122308127Y-77296465D01*
X122414669Y-77225277D01*
X123667784Y-75972160D01*
X123693585Y-75952386D01*
X123813631Y-75883271D01*
X123881550Y-75866882D01*
X123947549Y-75889814D01*
X123990673Y-75944787D01*
X123999500Y-75990734D01*
X123999500Y-99395500D01*
X123979815Y-99462539D01*
X123927011Y-99508294D01*
X123875500Y-99519500D01*
X111302190Y-99519500D01*
X111235151Y-99499815D01*
X111189396Y-99447011D01*
X111179452Y-99377853D01*
X111208477Y-99314297D01*
X111254738Y-99280939D01*
X111379172Y-99229397D01*
X111379172Y-99229396D01*
X111379179Y-99229394D01*
X111510289Y-99141789D01*
X111621789Y-99030289D01*
X111709394Y-98899179D01*
X111769737Y-98753497D01*
X111800500Y-98598842D01*
X111800500Y-98441158D01*
X111800500Y-98441155D01*
X111800499Y-98441153D01*
X111769737Y-98286503D01*
X111769735Y-98286498D01*
X111709397Y-98140827D01*
X111709390Y-98140814D01*
X111621789Y-98009711D01*
X111621786Y-98009707D01*
X111620885Y-98008806D01*
X111620563Y-98008217D01*
X111617924Y-98005001D01*
X111618533Y-98004500D01*
X111587400Y-97947483D01*
X111592384Y-97877791D01*
X111634256Y-97821858D01*
X111684372Y-97799508D01*
X111733497Y-97789737D01*
X111879179Y-97729394D01*
X112010289Y-97641789D01*
X112121789Y-97530289D01*
X112209394Y-97399179D01*
X112269737Y-97253497D01*
X112300500Y-97098842D01*
X112300500Y-96941158D01*
X112300500Y-96941155D01*
X112300499Y-96941153D01*
X112269738Y-96786510D01*
X112269737Y-96786503D01*
X112242638Y-96721079D01*
X112209397Y-96640827D01*
X112209390Y-96640814D01*
X112121789Y-96509711D01*
X112121786Y-96509707D01*
X112010292Y-96398213D01*
X112010288Y-96398210D01*
X111879185Y-96310609D01*
X111879172Y-96310602D01*
X111733501Y-96250264D01*
X111733489Y-96250261D01*
X111578845Y-96219500D01*
X111578842Y-96219500D01*
X111421158Y-96219500D01*
X111421155Y-96219500D01*
X111266510Y-96250261D01*
X111266498Y-96250264D01*
X111120827Y-96310602D01*
X111120814Y-96310609D01*
X110989711Y-96398210D01*
X110989707Y-96398213D01*
X110878213Y-96509707D01*
X110878210Y-96509711D01*
X110790609Y-96640814D01*
X110790602Y-96640827D01*
X110730264Y-96786498D01*
X110730261Y-96786510D01*
X110699500Y-96941153D01*
X110699500Y-97098846D01*
X110730261Y-97253489D01*
X110730264Y-97253501D01*
X110790602Y-97399172D01*
X110790609Y-97399185D01*
X110878210Y-97530288D01*
X110878213Y-97530292D01*
X110879114Y-97531193D01*
X110879435Y-97531780D01*
X110882076Y-97534999D01*
X110881465Y-97535499D01*
X110912599Y-97592516D01*
X110907615Y-97662208D01*
X110865743Y-97718141D01*
X110815626Y-97740491D01*
X110766507Y-97750261D01*
X110766498Y-97750264D01*
X110620827Y-97810602D01*
X110620814Y-97810609D01*
X110513391Y-97882388D01*
X110446713Y-97903266D01*
X110379333Y-97884782D01*
X110332643Y-97832803D01*
X110320500Y-97779286D01*
X110320500Y-97096456D01*
X110282052Y-96903170D01*
X110282051Y-96903169D01*
X110282051Y-96903165D01*
X110282049Y-96903160D01*
X110206635Y-96721092D01*
X110206628Y-96721079D01*
X110097139Y-96557218D01*
X110097136Y-96557214D01*
X109957785Y-96417863D01*
X109957781Y-96417860D01*
X109793920Y-96308371D01*
X109793907Y-96308364D01*
X109611839Y-96232950D01*
X109611829Y-96232947D01*
X109418543Y-96194500D01*
X109418541Y-96194500D01*
X109221459Y-96194500D01*
X109221457Y-96194500D01*
X109028170Y-96232947D01*
X109028160Y-96232950D01*
X108846092Y-96308364D01*
X108846079Y-96308371D01*
X108682218Y-96417860D01*
X108682214Y-96417863D01*
X108542863Y-96557214D01*
X108542860Y-96557218D01*
X108433371Y-96721079D01*
X108433364Y-96721092D01*
X108357950Y-96903160D01*
X108357947Y-96903170D01*
X108319500Y-97096456D01*
X108319500Y-97096459D01*
X108319500Y-98093541D01*
X108319500Y-98093543D01*
X108319499Y-98093543D01*
X108357947Y-98286829D01*
X108357950Y-98286839D01*
X108433364Y-98468907D01*
X108433371Y-98468920D01*
X108542860Y-98632781D01*
X108542863Y-98632785D01*
X108682214Y-98772136D01*
X108682218Y-98772139D01*
X108846079Y-98881628D01*
X108846092Y-98881635D01*
X109028160Y-98957049D01*
X109028165Y-98957051D01*
X109028169Y-98957051D01*
X109028170Y-98957052D01*
X109221456Y-98995500D01*
X109221459Y-98995500D01*
X109418543Y-98995500D01*
X109548582Y-98969632D01*
X109611835Y-98957051D01*
X109793914Y-98881632D01*
X109957782Y-98772139D01*
X110024897Y-98705023D01*
X110086218Y-98671540D01*
X110155910Y-98676524D01*
X110211844Y-98718395D01*
X110226967Y-98748269D01*
X110227932Y-98747870D01*
X110290602Y-98899172D01*
X110290609Y-98899185D01*
X110378210Y-99030288D01*
X110378213Y-99030292D01*
X110489707Y-99141786D01*
X110489711Y-99141789D01*
X110620814Y-99229390D01*
X110620827Y-99229397D01*
X110745262Y-99280939D01*
X110799666Y-99324779D01*
X110821731Y-99391074D01*
X110804452Y-99458773D01*
X110753315Y-99506384D01*
X110697810Y-99519500D01*
X86124500Y-99519500D01*
X86057461Y-99499815D01*
X86011706Y-99447011D01*
X86000500Y-99395500D01*
X86000500Y-98093543D01*
X99679499Y-98093543D01*
X99717947Y-98286829D01*
X99717950Y-98286839D01*
X99793364Y-98468907D01*
X99793371Y-98468920D01*
X99902860Y-98632781D01*
X99902863Y-98632785D01*
X100042214Y-98772136D01*
X100042218Y-98772139D01*
X100206079Y-98881628D01*
X100206092Y-98881635D01*
X100388160Y-98957049D01*
X100388165Y-98957051D01*
X100388169Y-98957051D01*
X100388170Y-98957052D01*
X100581456Y-98995500D01*
X100581459Y-98995500D01*
X100778543Y-98995500D01*
X100908582Y-98969632D01*
X100971835Y-98957051D01*
X101153914Y-98881632D01*
X101317782Y-98772139D01*
X101457139Y-98632782D01*
X101566632Y-98468914D01*
X101642051Y-98286835D01*
X101671094Y-98140827D01*
X101680500Y-98093543D01*
X101680500Y-97096456D01*
X101642052Y-96903170D01*
X101642051Y-96903169D01*
X101642051Y-96903165D01*
X101642049Y-96903160D01*
X101566635Y-96721092D01*
X101566628Y-96721079D01*
X101457139Y-96557218D01*
X101457136Y-96557214D01*
X101317785Y-96417863D01*
X101317781Y-96417860D01*
X101153920Y-96308371D01*
X101153907Y-96308364D01*
X100971839Y-96232950D01*
X100971829Y-96232947D01*
X100778543Y-96194500D01*
X100778541Y-96194500D01*
X100581459Y-96194500D01*
X100581457Y-96194500D01*
X100388170Y-96232947D01*
X100388160Y-96232950D01*
X100206092Y-96308364D01*
X100206079Y-96308371D01*
X100042218Y-96417860D01*
X100042214Y-96417863D01*
X99902863Y-96557214D01*
X99902860Y-96557218D01*
X99793371Y-96721079D01*
X99793364Y-96721092D01*
X99717950Y-96903160D01*
X99717947Y-96903170D01*
X99679500Y-97096456D01*
X99679500Y-97096459D01*
X99679500Y-98093541D01*
X99679500Y-98093543D01*
X99679499Y-98093543D01*
X86000500Y-98093543D01*
X86000500Y-94063543D01*
X99679499Y-94063543D01*
X99717947Y-94256829D01*
X99717950Y-94256839D01*
X99793364Y-94438907D01*
X99793371Y-94438920D01*
X99902860Y-94602781D01*
X99902863Y-94602785D01*
X100042214Y-94742136D01*
X100042218Y-94742139D01*
X100206079Y-94851628D01*
X100206092Y-94851635D01*
X100388160Y-94927049D01*
X100388165Y-94927051D01*
X100388169Y-94927051D01*
X100388170Y-94927052D01*
X100581456Y-94965500D01*
X100581459Y-94965500D01*
X100778543Y-94965500D01*
X100908582Y-94939632D01*
X100971835Y-94927051D01*
X101153914Y-94851632D01*
X101317782Y-94742139D01*
X101457139Y-94602782D01*
X101566632Y-94438914D01*
X101570540Y-94429478D01*
X101614376Y-94375074D01*
X101680669Y-94353004D01*
X101748369Y-94370279D01*
X101753028Y-94373432D01*
X101756633Y-94375513D01*
X101756635Y-94375515D01*
X101887865Y-94451281D01*
X102034234Y-94490500D01*
X102034236Y-94490500D01*
X102185764Y-94490500D01*
X102185766Y-94490500D01*
X102332135Y-94451281D01*
X102463365Y-94375515D01*
X102570515Y-94268365D01*
X102646281Y-94137135D01*
X102685500Y-93990766D01*
X102685500Y-93941153D01*
X103199500Y-93941153D01*
X103199500Y-94098846D01*
X103230261Y-94253489D01*
X103230264Y-94253501D01*
X103290602Y-94399172D01*
X103290609Y-94399185D01*
X103378210Y-94530288D01*
X103378213Y-94530292D01*
X103489707Y-94641786D01*
X103489711Y-94641789D01*
X103620814Y-94729390D01*
X103620827Y-94729397D01*
X103766498Y-94789735D01*
X103766503Y-94789737D01*
X103921153Y-94820499D01*
X103921156Y-94820500D01*
X103921158Y-94820500D01*
X104078844Y-94820500D01*
X104078845Y-94820499D01*
X104233497Y-94789737D01*
X104379179Y-94729394D01*
X104510289Y-94641789D01*
X104621789Y-94530289D01*
X104709394Y-94399179D01*
X104769737Y-94253497D01*
X104800500Y-94098842D01*
X104800500Y-93941158D01*
X104800500Y-93941155D01*
X104800499Y-93941153D01*
X105699500Y-93941153D01*
X105699500Y-94098846D01*
X105730261Y-94253489D01*
X105730264Y-94253501D01*
X105790602Y-94399172D01*
X105790609Y-94399185D01*
X105878210Y-94530288D01*
X105878213Y-94530292D01*
X105989707Y-94641786D01*
X105989711Y-94641789D01*
X106120814Y-94729390D01*
X106120827Y-94729397D01*
X106266498Y-94789735D01*
X106266503Y-94789737D01*
X106421153Y-94820499D01*
X106421156Y-94820500D01*
X106421158Y-94820500D01*
X106578844Y-94820500D01*
X106578845Y-94820499D01*
X106733497Y-94789737D01*
X106879179Y-94729394D01*
X107010289Y-94641789D01*
X107121789Y-94530289D01*
X107209394Y-94399179D01*
X107241154Y-94322502D01*
X107284992Y-94268101D01*
X107351286Y-94246035D01*
X107418986Y-94263313D01*
X107443395Y-94282275D01*
X107536635Y-94375515D01*
X107667865Y-94451281D01*
X107814234Y-94490500D01*
X107814236Y-94490500D01*
X107965764Y-94490500D01*
X107965766Y-94490500D01*
X108112135Y-94451281D01*
X108243365Y-94375515D01*
X108243366Y-94375513D01*
X108250403Y-94371451D01*
X108251749Y-94373783D01*
X108304553Y-94353357D01*
X108373001Y-94367381D01*
X108423001Y-94416185D01*
X108429458Y-94429474D01*
X108433367Y-94438913D01*
X108433371Y-94438920D01*
X108542860Y-94602781D01*
X108542863Y-94602785D01*
X108682214Y-94742136D01*
X108682218Y-94742139D01*
X108846079Y-94851628D01*
X108846092Y-94851635D01*
X109028160Y-94927049D01*
X109028165Y-94927051D01*
X109028169Y-94927051D01*
X109028170Y-94927052D01*
X109221456Y-94965500D01*
X109221459Y-94965500D01*
X109418543Y-94965500D01*
X109548582Y-94939632D01*
X109611835Y-94927051D01*
X109793914Y-94851632D01*
X109957782Y-94742139D01*
X110097139Y-94602782D01*
X110206632Y-94438914D01*
X110282051Y-94256835D01*
X110305861Y-94137135D01*
X110320500Y-94063543D01*
X110320500Y-92766456D01*
X110282052Y-92573170D01*
X110282051Y-92573169D01*
X110282051Y-92573165D01*
X110218816Y-92420500D01*
X110206635Y-92391092D01*
X110206628Y-92391079D01*
X110097139Y-92227218D01*
X110097136Y-92227214D01*
X109957785Y-92087863D01*
X109957781Y-92087860D01*
X109793920Y-91978371D01*
X109793907Y-91978364D01*
X109611839Y-91902950D01*
X109611829Y-91902947D01*
X109418543Y-91864500D01*
X109418541Y-91864500D01*
X109221459Y-91864500D01*
X109221457Y-91864500D01*
X109028170Y-91902947D01*
X109028160Y-91902950D01*
X108846092Y-91978364D01*
X108846079Y-91978371D01*
X108682218Y-92087860D01*
X108682214Y-92087863D01*
X108542863Y-92227214D01*
X108542860Y-92227218D01*
X108433371Y-92391079D01*
X108433364Y-92391092D01*
X108357950Y-92573160D01*
X108357947Y-92573170D01*
X108319500Y-92766456D01*
X108319500Y-93283666D01*
X108299815Y-93350705D01*
X108247011Y-93396460D01*
X108177853Y-93406404D01*
X108133501Y-93391054D01*
X108112137Y-93378719D01*
X108007584Y-93350705D01*
X107965766Y-93339500D01*
X107814234Y-93339500D01*
X107667863Y-93378719D01*
X107536635Y-93454485D01*
X107536632Y-93454487D01*
X107429487Y-93561632D01*
X107429483Y-93561638D01*
X107402641Y-93608128D01*
X107352073Y-93656343D01*
X107283466Y-93669564D01*
X107218601Y-93643595D01*
X107192153Y-93615017D01*
X107121789Y-93509711D01*
X107121786Y-93509707D01*
X107010292Y-93398213D01*
X107010288Y-93398210D01*
X106879185Y-93310609D01*
X106879172Y-93310602D01*
X106733501Y-93250264D01*
X106733489Y-93250261D01*
X106578845Y-93219500D01*
X106578842Y-93219500D01*
X106421158Y-93219500D01*
X106421155Y-93219500D01*
X106266510Y-93250261D01*
X106266498Y-93250264D01*
X106120827Y-93310602D01*
X106120814Y-93310609D01*
X105989711Y-93398210D01*
X105989707Y-93398213D01*
X105878213Y-93509707D01*
X105878210Y-93509711D01*
X105790609Y-93640814D01*
X105790602Y-93640827D01*
X105730264Y-93786498D01*
X105730261Y-93786510D01*
X105699500Y-93941153D01*
X104800499Y-93941153D01*
X104769738Y-93786510D01*
X104769737Y-93786503D01*
X104769735Y-93786498D01*
X104709397Y-93640827D01*
X104709390Y-93640814D01*
X104621789Y-93509711D01*
X104621786Y-93509707D01*
X104510292Y-93398213D01*
X104510288Y-93398210D01*
X104379185Y-93310609D01*
X104379172Y-93310602D01*
X104233501Y-93250264D01*
X104233489Y-93250261D01*
X104078845Y-93219500D01*
X104078842Y-93219500D01*
X103921158Y-93219500D01*
X103921155Y-93219500D01*
X103766510Y-93250261D01*
X103766498Y-93250264D01*
X103620827Y-93310602D01*
X103620814Y-93310609D01*
X103489711Y-93398210D01*
X103489707Y-93398213D01*
X103378213Y-93509707D01*
X103378210Y-93509711D01*
X103290609Y-93640814D01*
X103290602Y-93640827D01*
X103230264Y-93786498D01*
X103230261Y-93786510D01*
X103199500Y-93941153D01*
X102685500Y-93941153D01*
X102685500Y-93839234D01*
X102646281Y-93692865D01*
X102570515Y-93561635D01*
X102463365Y-93454485D01*
X102380087Y-93406404D01*
X102332136Y-93378719D01*
X102227584Y-93350705D01*
X102185766Y-93339500D01*
X102034234Y-93339500D01*
X101887862Y-93378719D01*
X101866499Y-93391054D01*
X101798598Y-93407525D01*
X101732572Y-93384673D01*
X101689382Y-93329751D01*
X101680500Y-93283666D01*
X101680500Y-92766456D01*
X101642052Y-92573170D01*
X101642051Y-92573169D01*
X101642051Y-92573165D01*
X101578816Y-92420500D01*
X101566635Y-92391092D01*
X101566628Y-92391079D01*
X101457139Y-92227218D01*
X101457136Y-92227214D01*
X101317785Y-92087863D01*
X101317781Y-92087860D01*
X101153920Y-91978371D01*
X101153907Y-91978364D01*
X100971839Y-91902950D01*
X100971829Y-91902947D01*
X100778543Y-91864500D01*
X100778541Y-91864500D01*
X100581459Y-91864500D01*
X100581457Y-91864500D01*
X100388170Y-91902947D01*
X100388160Y-91902950D01*
X100206092Y-91978364D01*
X100206079Y-91978371D01*
X100042218Y-92087860D01*
X100042214Y-92087863D01*
X99902863Y-92227214D01*
X99902860Y-92227218D01*
X99793371Y-92391079D01*
X99793364Y-92391092D01*
X99717950Y-92573160D01*
X99717947Y-92573170D01*
X99679500Y-92766456D01*
X99679500Y-92766459D01*
X99679500Y-94063541D01*
X99679500Y-94063543D01*
X99679499Y-94063543D01*
X86000500Y-94063543D01*
X86000500Y-91613074D01*
X103450430Y-91613074D01*
X103450430Y-91770767D01*
X103481191Y-91925410D01*
X103481194Y-91925422D01*
X103541532Y-92071093D01*
X103541539Y-92071106D01*
X103629140Y-92202209D01*
X103629143Y-92202213D01*
X103740637Y-92313707D01*
X103740641Y-92313710D01*
X103871744Y-92401311D01*
X103871757Y-92401318D01*
X104017428Y-92461656D01*
X104017433Y-92461658D01*
X104172083Y-92492420D01*
X104172086Y-92492421D01*
X104172088Y-92492421D01*
X104329774Y-92492421D01*
X104329775Y-92492420D01*
X104484427Y-92461658D01*
X104630109Y-92401315D01*
X104761219Y-92313710D01*
X104872719Y-92202210D01*
X104872721Y-92202206D01*
X104873743Y-92201185D01*
X104935066Y-92167700D01*
X105004758Y-92172684D01*
X105049106Y-92201185D01*
X105089707Y-92241786D01*
X105089711Y-92241789D01*
X105220814Y-92329390D01*
X105220827Y-92329397D01*
X105366498Y-92389735D01*
X105366503Y-92389737D01*
X105521153Y-92420499D01*
X105521156Y-92420500D01*
X105521158Y-92420500D01*
X105678844Y-92420500D01*
X105678845Y-92420499D01*
X105833497Y-92389737D01*
X105979179Y-92329394D01*
X106110289Y-92241789D01*
X106221789Y-92130289D01*
X106309394Y-91999179D01*
X106369737Y-91853497D01*
X106400500Y-91698842D01*
X106400500Y-91541158D01*
X106400500Y-91541155D01*
X106400499Y-91541153D01*
X106369738Y-91386510D01*
X106369737Y-91386503D01*
X106342398Y-91320500D01*
X106309397Y-91240827D01*
X106309390Y-91240814D01*
X106221789Y-91109711D01*
X106221786Y-91109707D01*
X106110292Y-90998213D01*
X106110288Y-90998210D01*
X105979185Y-90910609D01*
X105979172Y-90910602D01*
X105833501Y-90850264D01*
X105833489Y-90850261D01*
X105678845Y-90819500D01*
X105678842Y-90819500D01*
X105521158Y-90819500D01*
X105521155Y-90819500D01*
X105366510Y-90850261D01*
X105366498Y-90850264D01*
X105220827Y-90910602D01*
X105220814Y-90910609D01*
X105089711Y-90998210D01*
X104977185Y-91110736D01*
X104915862Y-91144220D01*
X104846170Y-91139236D01*
X104801823Y-91110735D01*
X104761222Y-91070134D01*
X104761218Y-91070131D01*
X104630115Y-90982530D01*
X104630102Y-90982523D01*
X104484431Y-90922185D01*
X104484419Y-90922182D01*
X104329775Y-90891421D01*
X104329772Y-90891421D01*
X104172088Y-90891421D01*
X104172085Y-90891421D01*
X104017440Y-90922182D01*
X104017428Y-90922185D01*
X103871757Y-90982523D01*
X103871744Y-90982530D01*
X103740641Y-91070131D01*
X103740637Y-91070134D01*
X103629143Y-91181628D01*
X103629140Y-91181632D01*
X103541539Y-91312735D01*
X103541532Y-91312748D01*
X103481194Y-91458419D01*
X103481191Y-91458431D01*
X103450430Y-91613074D01*
X86000500Y-91613074D01*
X86000500Y-89619983D01*
X87124500Y-89619983D01*
X87124500Y-90420001D01*
X87124501Y-90420019D01*
X87135000Y-90522796D01*
X87135001Y-90522799D01*
X87160201Y-90598846D01*
X87190186Y-90689334D01*
X87282288Y-90838656D01*
X87406344Y-90962712D01*
X87555666Y-91054814D01*
X87722203Y-91109999D01*
X87824991Y-91120500D01*
X89175008Y-91120499D01*
X89277797Y-91109999D01*
X89444334Y-91054814D01*
X89593656Y-90962712D01*
X89717712Y-90838656D01*
X89809814Y-90689334D01*
X89864999Y-90522797D01*
X89875500Y-90420009D01*
X89875499Y-89619992D01*
X89864999Y-89517203D01*
X89809814Y-89350666D01*
X89717712Y-89201344D01*
X89593656Y-89077288D01*
X89444334Y-88985186D01*
X89277797Y-88930001D01*
X89277795Y-88930000D01*
X89175010Y-88919500D01*
X87824998Y-88919500D01*
X87824981Y-88919501D01*
X87722203Y-88930000D01*
X87722200Y-88930001D01*
X87555668Y-88985185D01*
X87555663Y-88985187D01*
X87406342Y-89077289D01*
X87282289Y-89201342D01*
X87190187Y-89350663D01*
X87190186Y-89350666D01*
X87135001Y-89517203D01*
X87135001Y-89517204D01*
X87135000Y-89517204D01*
X87124500Y-89619983D01*
X86000500Y-89619983D01*
X86000500Y-85341153D01*
X104899500Y-85341153D01*
X104899500Y-85498846D01*
X104930261Y-85653489D01*
X104930264Y-85653501D01*
X104990602Y-85799172D01*
X104990609Y-85799185D01*
X105078210Y-85930288D01*
X105078213Y-85930292D01*
X105189707Y-86041786D01*
X105189711Y-86041789D01*
X105320814Y-86129390D01*
X105320827Y-86129397D01*
X105430130Y-86174671D01*
X105466503Y-86189737D01*
X105600913Y-86216473D01*
X105621153Y-86220499D01*
X105621156Y-86220500D01*
X105621158Y-86220500D01*
X105778836Y-86220500D01*
X105778842Y-86220500D01*
X105783439Y-86219585D01*
X105806282Y-86217209D01*
X105810483Y-86217163D01*
X105810495Y-86217164D01*
X105810506Y-86217163D01*
X105810510Y-86217163D01*
X105959210Y-86204883D01*
X106325099Y-86174671D01*
X106335754Y-86173436D01*
X106353997Y-86171324D01*
X106368264Y-86170500D01*
X108237770Y-86170500D01*
X108304809Y-86190185D01*
X108325451Y-86206819D01*
X113117049Y-90998416D01*
X113173445Y-91054812D01*
X113221585Y-91102952D01*
X113344498Y-91185080D01*
X113344511Y-91185087D01*
X113451469Y-91229390D01*
X113481087Y-91241658D01*
X113481091Y-91241658D01*
X113481092Y-91241659D01*
X113626079Y-91270500D01*
X113626082Y-91270500D01*
X118642672Y-91270500D01*
X118670355Y-91273630D01*
X118672376Y-91274092D01*
X118674901Y-91274671D01*
X118674909Y-91274671D01*
X118674911Y-91274672D01*
X119189466Y-91317161D01*
X119189471Y-91317161D01*
X119189504Y-91317164D01*
X119201982Y-91317890D01*
X119218959Y-91320062D01*
X119221158Y-91320500D01*
X119221159Y-91320500D01*
X119378844Y-91320500D01*
X119378845Y-91320499D01*
X119533497Y-91289737D01*
X119651592Y-91240821D01*
X119679172Y-91229397D01*
X119679172Y-91229396D01*
X119679179Y-91229394D01*
X119810289Y-91141789D01*
X119921789Y-91030289D01*
X120009394Y-90899179D01*
X120012608Y-90891421D01*
X120029655Y-90850264D01*
X120069737Y-90753497D01*
X120100500Y-90598842D01*
X120100500Y-90441158D01*
X120100500Y-90441155D01*
X120100499Y-90441153D01*
X120069738Y-90286510D01*
X120069737Y-90286503D01*
X120069735Y-90286498D01*
X120009397Y-90140827D01*
X120009390Y-90140814D01*
X119921789Y-90009711D01*
X119921786Y-90009707D01*
X119810292Y-89898213D01*
X119810288Y-89898210D01*
X119679185Y-89810609D01*
X119679172Y-89810602D01*
X119533501Y-89750264D01*
X119533489Y-89750261D01*
X119378845Y-89719500D01*
X119378842Y-89719500D01*
X119221158Y-89719500D01*
X119221152Y-89719500D01*
X119216560Y-89720414D01*
X119193734Y-89722789D01*
X119189490Y-89722835D01*
X118674899Y-89765327D01*
X118646020Y-89768675D01*
X118631743Y-89769500D01*
X114062229Y-89769500D01*
X113995190Y-89749815D01*
X113974548Y-89733181D01*
X109078421Y-84837052D01*
X109078414Y-84837046D01*
X108978818Y-84770499D01*
X108978817Y-84770499D01*
X108955495Y-84754916D01*
X108955488Y-84754912D01*
X108818917Y-84698343D01*
X108818907Y-84698340D01*
X108673920Y-84669500D01*
X108673918Y-84669500D01*
X106357331Y-84669500D01*
X106329644Y-84666369D01*
X106325104Y-84665329D01*
X106325088Y-84665326D01*
X105810500Y-84622835D01*
X105798014Y-84622108D01*
X105781042Y-84619937D01*
X105778848Y-84619500D01*
X105778842Y-84619500D01*
X105621158Y-84619500D01*
X105621155Y-84619500D01*
X105466510Y-84650261D01*
X105466498Y-84650264D01*
X105320827Y-84710602D01*
X105320814Y-84710609D01*
X105189711Y-84798210D01*
X105189707Y-84798213D01*
X105078213Y-84909707D01*
X105078210Y-84909711D01*
X104990609Y-85040814D01*
X104990602Y-85040827D01*
X104930264Y-85186498D01*
X104930261Y-85186510D01*
X104899500Y-85341153D01*
X86000500Y-85341153D01*
X86000500Y-79869983D01*
X87024500Y-79869983D01*
X87024500Y-81170001D01*
X87024501Y-81170018D01*
X87035000Y-81272796D01*
X87035001Y-81272799D01*
X87062628Y-81356171D01*
X87090186Y-81439334D01*
X87182288Y-81588656D01*
X87306344Y-81712712D01*
X87455666Y-81804814D01*
X87622203Y-81859999D01*
X87724991Y-81870500D01*
X89275008Y-81870499D01*
X89377797Y-81859999D01*
X89544334Y-81804814D01*
X89693656Y-81712712D01*
X89817712Y-81588656D01*
X89909814Y-81439334D01*
X89964999Y-81272797D01*
X89975500Y-81170009D01*
X89975499Y-79869992D01*
X89973697Y-79852356D01*
X89964999Y-79767203D01*
X89964998Y-79767200D01*
X89948053Y-79716064D01*
X89909814Y-79600666D01*
X89817712Y-79451344D01*
X89693656Y-79327288D01*
X89544334Y-79235186D01*
X89377797Y-79180001D01*
X89377795Y-79180000D01*
X89275010Y-79169500D01*
X87724998Y-79169500D01*
X87724981Y-79169501D01*
X87622203Y-79180000D01*
X87622200Y-79180001D01*
X87455668Y-79235185D01*
X87455663Y-79235187D01*
X87306342Y-79327289D01*
X87182289Y-79451342D01*
X87090187Y-79600663D01*
X87090186Y-79600666D01*
X87035001Y-79767203D01*
X87035001Y-79767204D01*
X87035000Y-79767204D01*
X87024500Y-79869983D01*
X86000500Y-79869983D01*
X86000500Y-78941153D01*
X97199500Y-78941153D01*
X97199500Y-79098846D01*
X97230261Y-79253489D01*
X97230264Y-79253501D01*
X97290602Y-79399172D01*
X97290609Y-79399185D01*
X97378210Y-79530288D01*
X97378213Y-79530292D01*
X97489707Y-79641786D01*
X97489711Y-79641789D01*
X97620814Y-79729390D01*
X97620827Y-79729397D01*
X97712103Y-79767204D01*
X97766503Y-79789737D01*
X97921153Y-79820499D01*
X97921156Y-79820500D01*
X97921158Y-79820500D01*
X98078844Y-79820500D01*
X98078845Y-79820499D01*
X98233497Y-79789737D01*
X98379179Y-79729394D01*
X98510289Y-79641789D01*
X98621789Y-79530289D01*
X98709394Y-79399179D01*
X98769737Y-79253497D01*
X98800500Y-79098842D01*
X98800500Y-78941158D01*
X98800500Y-78941155D01*
X98800499Y-78941153D01*
X102699500Y-78941153D01*
X102699500Y-79098846D01*
X102730261Y-79253489D01*
X102730264Y-79253501D01*
X102790602Y-79399172D01*
X102790609Y-79399185D01*
X102878210Y-79530288D01*
X102878213Y-79530292D01*
X102989707Y-79641786D01*
X102989711Y-79641789D01*
X103120814Y-79729390D01*
X103120827Y-79729397D01*
X103212103Y-79767204D01*
X103266503Y-79789737D01*
X103421153Y-79820499D01*
X103421156Y-79820500D01*
X103421158Y-79820500D01*
X103578844Y-79820500D01*
X103578845Y-79820499D01*
X103733497Y-79789737D01*
X103879179Y-79729394D01*
X104010289Y-79641789D01*
X104121789Y-79530289D01*
X104209394Y-79399179D01*
X104269737Y-79253497D01*
X104300500Y-79098842D01*
X104300500Y-78941158D01*
X104300500Y-78941155D01*
X104300499Y-78941153D01*
X104280543Y-78840827D01*
X104269737Y-78786503D01*
X104237929Y-78709711D01*
X104209397Y-78640827D01*
X104209390Y-78640814D01*
X104121789Y-78509711D01*
X104121786Y-78509707D01*
X104010292Y-78398213D01*
X104010288Y-78398210D01*
X103879185Y-78310609D01*
X103879172Y-78310602D01*
X103733501Y-78250264D01*
X103733489Y-78250261D01*
X103578845Y-78219500D01*
X103578842Y-78219500D01*
X103421158Y-78219500D01*
X103421155Y-78219500D01*
X103266510Y-78250261D01*
X103266498Y-78250264D01*
X103120827Y-78310602D01*
X103120814Y-78310609D01*
X102989711Y-78398210D01*
X102989707Y-78398213D01*
X102878213Y-78509707D01*
X102878210Y-78509711D01*
X102790609Y-78640814D01*
X102790602Y-78640827D01*
X102730264Y-78786498D01*
X102730261Y-78786510D01*
X102699500Y-78941153D01*
X98800499Y-78941153D01*
X98780543Y-78840827D01*
X98769737Y-78786503D01*
X98737929Y-78709711D01*
X98709397Y-78640827D01*
X98709390Y-78640814D01*
X98621789Y-78509711D01*
X98621786Y-78509707D01*
X98510292Y-78398213D01*
X98510288Y-78398210D01*
X98379185Y-78310609D01*
X98379172Y-78310602D01*
X98233501Y-78250264D01*
X98233489Y-78250261D01*
X98078845Y-78219500D01*
X98078842Y-78219500D01*
X97921158Y-78219500D01*
X97921155Y-78219500D01*
X97766510Y-78250261D01*
X97766498Y-78250264D01*
X97620827Y-78310602D01*
X97620814Y-78310609D01*
X97489711Y-78398210D01*
X97489707Y-78398213D01*
X97378213Y-78509707D01*
X97378210Y-78509711D01*
X97290609Y-78640814D01*
X97290602Y-78640827D01*
X97230264Y-78786498D01*
X97230261Y-78786510D01*
X97199500Y-78941153D01*
X86000500Y-78941153D01*
X86000500Y-75413713D01*
X87024500Y-75413713D01*
X87024500Y-75626287D01*
X87057754Y-75836243D01*
X87121743Y-76033181D01*
X87123444Y-76038414D01*
X87219951Y-76227820D01*
X87344890Y-76399786D01*
X87495213Y-76550109D01*
X87667179Y-76675048D01*
X87667181Y-76675049D01*
X87667184Y-76675051D01*
X87856588Y-76771557D01*
X88058757Y-76837246D01*
X88268713Y-76870500D01*
X88268714Y-76870500D01*
X88731286Y-76870500D01*
X88731287Y-76870500D01*
X88941243Y-76837246D01*
X89143412Y-76771557D01*
X89332816Y-76675051D01*
X89401325Y-76625277D01*
X89504786Y-76550109D01*
X89504788Y-76550106D01*
X89504792Y-76550104D01*
X89655104Y-76399792D01*
X89655106Y-76399788D01*
X89655109Y-76399786D01*
X89780048Y-76227820D01*
X89780047Y-76227820D01*
X89780051Y-76227816D01*
X89876557Y-76038412D01*
X89942246Y-75836243D01*
X89975500Y-75626287D01*
X89975500Y-75413713D01*
X89942246Y-75203757D01*
X89876557Y-75001588D01*
X89780051Y-74812184D01*
X89780049Y-74812181D01*
X89780048Y-74812179D01*
X89655109Y-74640213D01*
X89504786Y-74489890D01*
X89332820Y-74364951D01*
X89143414Y-74268444D01*
X89143413Y-74268443D01*
X89143412Y-74268443D01*
X88941243Y-74202754D01*
X88941241Y-74202753D01*
X88941240Y-74202753D01*
X88779957Y-74177208D01*
X88731287Y-74169500D01*
X88268713Y-74169500D01*
X88220042Y-74177208D01*
X88058760Y-74202753D01*
X87856585Y-74268444D01*
X87667179Y-74364951D01*
X87495213Y-74489890D01*
X87344890Y-74640213D01*
X87219951Y-74812179D01*
X87123444Y-75001585D01*
X87057753Y-75203760D01*
X87024500Y-75413713D01*
X86000500Y-75413713D01*
X86000500Y-68083074D01*
X86791500Y-68083074D01*
X86791500Y-68256925D01*
X86818697Y-68428639D01*
X86818697Y-68428642D01*
X86872418Y-68593978D01*
X86872420Y-68593981D01*
X86951347Y-68748884D01*
X87053535Y-68889533D01*
X87176467Y-69012465D01*
X87317116Y-69114653D01*
X87472019Y-69193580D01*
X87472021Y-69193581D01*
X87637358Y-69247302D01*
X87637359Y-69247302D01*
X87637362Y-69247303D01*
X87809074Y-69274500D01*
X87809075Y-69274500D01*
X89190925Y-69274500D01*
X89190926Y-69274500D01*
X89362638Y-69247303D01*
X89362641Y-69247302D01*
X89362642Y-69247302D01*
X89527978Y-69193581D01*
X89527978Y-69193580D01*
X89527981Y-69193580D01*
X89682884Y-69114653D01*
X89823533Y-69012465D01*
X89946465Y-68889533D01*
X90048653Y-68748884D01*
X90127580Y-68593981D01*
X90181303Y-68428638D01*
X90208500Y-68256926D01*
X90208500Y-68083074D01*
X90181303Y-67911362D01*
X90181302Y-67911358D01*
X90181302Y-67911357D01*
X90127581Y-67746021D01*
X90127580Y-67746019D01*
X90048653Y-67591116D01*
X89946465Y-67450467D01*
X89823533Y-67327535D01*
X89682884Y-67225347D01*
X89527978Y-67146418D01*
X89362642Y-67092697D01*
X89341754Y-67089389D01*
X89278620Y-67059458D01*
X89241690Y-67000146D01*
X89242689Y-66930284D01*
X89273469Y-66879239D01*
X89380603Y-66772106D01*
X89487417Y-66625090D01*
X89569917Y-66463174D01*
X89626072Y-66290346D01*
X89654500Y-66110861D01*
X89654500Y-65929139D01*
X89626072Y-65749654D01*
X89626071Y-65749650D01*
X89626071Y-65749649D01*
X89569918Y-65576828D01*
X89569916Y-65576825D01*
X89487416Y-65414909D01*
X89380603Y-65267894D01*
X89252106Y-65139397D01*
X89105090Y-65032583D01*
X88943174Y-64950083D01*
X88943171Y-64950081D01*
X88770348Y-64893928D01*
X88650689Y-64874976D01*
X88590861Y-64865500D01*
X88409139Y-64865500D01*
X88349310Y-64874976D01*
X88229652Y-64893928D01*
X88229649Y-64893928D01*
X88056828Y-64950081D01*
X88056825Y-64950083D01*
X87894909Y-65032583D01*
X87811030Y-65093525D01*
X87747894Y-65139397D01*
X87747892Y-65139399D01*
X87747891Y-65139399D01*
X87619399Y-65267891D01*
X87619399Y-65267892D01*
X87619397Y-65267894D01*
X87573525Y-65331030D01*
X87512583Y-65414909D01*
X87430083Y-65576825D01*
X87430081Y-65576828D01*
X87373928Y-65749649D01*
X87373928Y-65749652D01*
X87345500Y-65929139D01*
X87345500Y-66110860D01*
X87373928Y-66290347D01*
X87373928Y-66290350D01*
X87430081Y-66463171D01*
X87430083Y-66463174D01*
X87512583Y-66625090D01*
X87619397Y-66772106D01*
X87619399Y-66772108D01*
X87726526Y-66879235D01*
X87760011Y-66940558D01*
X87755027Y-67010250D01*
X87713155Y-67066183D01*
X87658246Y-67089389D01*
X87637356Y-67092698D01*
X87472021Y-67146418D01*
X87317115Y-67225347D01*
X87236869Y-67283649D01*
X87176467Y-67327535D01*
X87176465Y-67327537D01*
X87176464Y-67327537D01*
X87053537Y-67450464D01*
X87053537Y-67450465D01*
X87053535Y-67450467D01*
X87009649Y-67510869D01*
X86951347Y-67591115D01*
X86872418Y-67746021D01*
X86818697Y-67911357D01*
X86818697Y-67911360D01*
X86791500Y-68083074D01*
X86000500Y-68083074D01*
X86000500Y-61929139D01*
X87345500Y-61929139D01*
X87345500Y-62110860D01*
X87373928Y-62290347D01*
X87373928Y-62290350D01*
X87430081Y-62463171D01*
X87430083Y-62463174D01*
X87512583Y-62625090D01*
X87619397Y-62772106D01*
X87747894Y-62900603D01*
X87894910Y-63007417D01*
X88056826Y-63089917D01*
X88056828Y-63089918D01*
X88218029Y-63142294D01*
X88229654Y-63146072D01*
X88409139Y-63174500D01*
X88409140Y-63174500D01*
X88590860Y-63174500D01*
X88590861Y-63174500D01*
X88770346Y-63146072D01*
X88770349Y-63146071D01*
X88770350Y-63146071D01*
X88943171Y-63089918D01*
X88943171Y-63089917D01*
X88943174Y-63089917D01*
X89105090Y-63007417D01*
X89252106Y-62900603D01*
X89380603Y-62772106D01*
X89487417Y-62625090D01*
X89569917Y-62463174D01*
X89626072Y-62290346D01*
X89654500Y-62110861D01*
X89654500Y-61929139D01*
X89626072Y-61749654D01*
X89626071Y-61749650D01*
X89626071Y-61749649D01*
X89569918Y-61576828D01*
X89569916Y-61576825D01*
X89487416Y-61414909D01*
X89380603Y-61267894D01*
X89252106Y-61139397D01*
X89105090Y-61032583D01*
X88943174Y-60950083D01*
X88943171Y-60950081D01*
X88770348Y-60893928D01*
X88650689Y-60874976D01*
X88590861Y-60865500D01*
X88409139Y-60865500D01*
X88349310Y-60874976D01*
X88229652Y-60893928D01*
X88229649Y-60893928D01*
X88056828Y-60950081D01*
X88056825Y-60950083D01*
X87894909Y-61032583D01*
X87811030Y-61093525D01*
X87747894Y-61139397D01*
X87747892Y-61139399D01*
X87747891Y-61139399D01*
X87619399Y-61267891D01*
X87619399Y-61267892D01*
X87619397Y-61267894D01*
X87573525Y-61331030D01*
X87512583Y-61414909D01*
X87430083Y-61576825D01*
X87430081Y-61576828D01*
X87373928Y-61749649D01*
X87373928Y-61749652D01*
X87345500Y-61929139D01*
X86000500Y-61929139D01*
X86000500Y-55783074D01*
X86791500Y-55783074D01*
X86791500Y-55956925D01*
X86818697Y-56128639D01*
X86818697Y-56128642D01*
X86872418Y-56293978D01*
X86941872Y-56430288D01*
X86951347Y-56448884D01*
X87053535Y-56589533D01*
X87176467Y-56712465D01*
X87281953Y-56789106D01*
X87317117Y-56814654D01*
X87414917Y-56864485D01*
X87465714Y-56912459D01*
X87482509Y-56980280D01*
X87459972Y-57046415D01*
X87457890Y-57049280D01*
X87402206Y-57123664D01*
X87402202Y-57123671D01*
X87351908Y-57258517D01*
X87345501Y-57318116D01*
X87345501Y-57318123D01*
X87345500Y-57318135D01*
X87345500Y-58721870D01*
X87345501Y-58721876D01*
X87351908Y-58781483D01*
X87402202Y-58916328D01*
X87402206Y-58916335D01*
X87488452Y-59031544D01*
X87488455Y-59031547D01*
X87603664Y-59117793D01*
X87603671Y-59117797D01*
X87738517Y-59168091D01*
X87738516Y-59168091D01*
X87745444Y-59168835D01*
X87798127Y-59174500D01*
X89201872Y-59174499D01*
X89261483Y-59168091D01*
X89396331Y-59117796D01*
X89511546Y-59031546D01*
X89597796Y-58916331D01*
X89648091Y-58781483D01*
X89654500Y-58721873D01*
X89654499Y-57318128D01*
X89648091Y-57258517D01*
X89622287Y-57189334D01*
X89597797Y-57123671D01*
X89597796Y-57123669D01*
X89542109Y-57049281D01*
X89517692Y-56983817D01*
X89532543Y-56915544D01*
X89581948Y-56866138D01*
X89585048Y-56864502D01*
X89682884Y-56814653D01*
X89823533Y-56712465D01*
X89946465Y-56589533D01*
X90048653Y-56448884D01*
X90127580Y-56293981D01*
X90173226Y-56153497D01*
X90181302Y-56128642D01*
X90181302Y-56128641D01*
X90181303Y-56128638D01*
X90208500Y-55956926D01*
X90208500Y-55783074D01*
X90181303Y-55611362D01*
X90181302Y-55611358D01*
X90181302Y-55611357D01*
X90127581Y-55446021D01*
X90107083Y-55405792D01*
X90048653Y-55291116D01*
X89946465Y-55150467D01*
X89823533Y-55027535D01*
X89682884Y-54925347D01*
X89527978Y-54846418D01*
X89362641Y-54792697D01*
X89233854Y-54772299D01*
X89190926Y-54765500D01*
X87809074Y-54765500D01*
X87751836Y-54774565D01*
X87637360Y-54792697D01*
X87637357Y-54792697D01*
X87472021Y-54846418D01*
X87317115Y-54925347D01*
X87236869Y-54983649D01*
X87176467Y-55027535D01*
X87176465Y-55027537D01*
X87176464Y-55027537D01*
X87053537Y-55150464D01*
X87053537Y-55150465D01*
X87053535Y-55150467D01*
X87009649Y-55210869D01*
X86951347Y-55291115D01*
X86872418Y-55446021D01*
X86818697Y-55611357D01*
X86818697Y-55611360D01*
X86791500Y-55783074D01*
X86000500Y-55783074D01*
X86000500Y-52741153D01*
X92699500Y-52741153D01*
X92699500Y-52898846D01*
X92730261Y-53053489D01*
X92730264Y-53053501D01*
X92790602Y-53199172D01*
X92790609Y-53199185D01*
X92878210Y-53330288D01*
X92878213Y-53330292D01*
X92989707Y-53441786D01*
X92989711Y-53441789D01*
X93120814Y-53529390D01*
X93120827Y-53529397D01*
X93240021Y-53578768D01*
X93266503Y-53589737D01*
X93421153Y-53620499D01*
X93421156Y-53620500D01*
X93421158Y-53620500D01*
X93578844Y-53620500D01*
X93578845Y-53620499D01*
X93733497Y-53589737D01*
X93879179Y-53529394D01*
X94010289Y-53441789D01*
X94121789Y-53330289D01*
X94209394Y-53199179D01*
X94269737Y-53053497D01*
X94300500Y-52898842D01*
X94300500Y-52741158D01*
X94300500Y-52741155D01*
X94300499Y-52741153D01*
X94290981Y-52693302D01*
X94269737Y-52586503D01*
X94242398Y-52520500D01*
X94209397Y-52440827D01*
X94209390Y-52440814D01*
X94121789Y-52309711D01*
X94121786Y-52309707D01*
X94010292Y-52198213D01*
X94010288Y-52198210D01*
X93879185Y-52110609D01*
X93879172Y-52110602D01*
X93733501Y-52050264D01*
X93733489Y-52050261D01*
X93578845Y-52019500D01*
X93578842Y-52019500D01*
X93421158Y-52019500D01*
X93421155Y-52019500D01*
X93266510Y-52050261D01*
X93266498Y-52050264D01*
X93120827Y-52110602D01*
X93120814Y-52110609D01*
X92989711Y-52198210D01*
X92989707Y-52198213D01*
X92878213Y-52309707D01*
X92878210Y-52309711D01*
X92790609Y-52440814D01*
X92790602Y-52440827D01*
X92730264Y-52586498D01*
X92730261Y-52586510D01*
X92699500Y-52741153D01*
X86000500Y-52741153D01*
X86000500Y-49498844D01*
X98299499Y-49498844D01*
X98315162Y-49577580D01*
X98316650Y-49586901D01*
X98320887Y-49621984D01*
X98445236Y-50083828D01*
X98449500Y-50116066D01*
X98449500Y-71934069D01*
X98461912Y-71996464D01*
X98461912Y-71996466D01*
X98474497Y-72059736D01*
X98474499Y-72059744D01*
X98523534Y-72178125D01*
X98594726Y-72284673D01*
X102935325Y-76625272D01*
X102935331Y-76625277D01*
X103041874Y-76696466D01*
X103111221Y-76725189D01*
X103160256Y-76745501D01*
X103160259Y-76745501D01*
X103160260Y-76745502D01*
X103285928Y-76770500D01*
X103285931Y-76770500D01*
X103414069Y-76770500D01*
X105003933Y-76770500D01*
X105036171Y-76774764D01*
X105498013Y-76899111D01*
X105513580Y-76903038D01*
X105514302Y-76903208D01*
X105583500Y-76914506D01*
X105583509Y-76914505D01*
X105585228Y-76914602D01*
X105602519Y-76916792D01*
X105621158Y-76920500D01*
X105778844Y-76920500D01*
X105778845Y-76920499D01*
X105933497Y-76889737D01*
X106046166Y-76843067D01*
X106079172Y-76829397D01*
X106079172Y-76829396D01*
X106079179Y-76829394D01*
X106156609Y-76777657D01*
X106223286Y-76756779D01*
X106290666Y-76775263D01*
X106337357Y-76827242D01*
X106349500Y-76880759D01*
X106349500Y-79104725D01*
X106369328Y-79204402D01*
X106369328Y-79204403D01*
X106374497Y-79230391D01*
X106374500Y-79230401D01*
X106423532Y-79348777D01*
X106423535Y-79348781D01*
X106492064Y-79451344D01*
X106494726Y-79455327D01*
X106494727Y-79455328D01*
X108793076Y-81753676D01*
X108826561Y-81814999D01*
X108821577Y-81884691D01*
X108779705Y-81940624D01*
X108752848Y-81955918D01*
X108620824Y-82010604D01*
X108620814Y-82010609D01*
X108489711Y-82098210D01*
X108489707Y-82098213D01*
X108378213Y-82209707D01*
X108378210Y-82209711D01*
X108290609Y-82340814D01*
X108290602Y-82340827D01*
X108230264Y-82486498D01*
X108230261Y-82486510D01*
X108199500Y-82641153D01*
X108199500Y-82798846D01*
X108230261Y-82953489D01*
X108230264Y-82953501D01*
X108290602Y-83099172D01*
X108290609Y-83099185D01*
X108378210Y-83230288D01*
X108378213Y-83230292D01*
X108489707Y-83341786D01*
X108489711Y-83341789D01*
X108620814Y-83429390D01*
X108620827Y-83429397D01*
X108727607Y-83473626D01*
X108766503Y-83489737D01*
X108921153Y-83520499D01*
X108921156Y-83520500D01*
X108921158Y-83520500D01*
X109078843Y-83520500D01*
X109103988Y-83515498D01*
X109157610Y-83504831D01*
X109166914Y-83503347D01*
X109201985Y-83499111D01*
X109663827Y-83374764D01*
X109696065Y-83370500D01*
X110164071Y-83370500D01*
X110248615Y-83353682D01*
X110289744Y-83345501D01*
X110408127Y-83296465D01*
X110408132Y-83296461D01*
X110408135Y-83296460D01*
X110425972Y-83284542D01*
X110425974Y-83284541D01*
X110507169Y-83230288D01*
X110514669Y-83225277D01*
X111455570Y-82284376D01*
X111526758Y-82177834D01*
X111575794Y-82059451D01*
X111577330Y-82051731D01*
X111585511Y-82010606D01*
X111600793Y-81933778D01*
X111600793Y-81337847D01*
X111620478Y-81270808D01*
X111673282Y-81225053D01*
X111700602Y-81216230D01*
X111716584Y-81213050D01*
X111833790Y-81189737D01*
X111979472Y-81129394D01*
X112110582Y-81041789D01*
X112222082Y-80930289D01*
X112238316Y-80905991D01*
X112291927Y-80861188D01*
X112361252Y-80852479D01*
X112365610Y-80853266D01*
X112457275Y-80871500D01*
X112457278Y-80871500D01*
X112614963Y-80871500D01*
X112635143Y-80867485D01*
X112693730Y-80855831D01*
X112703034Y-80854347D01*
X112738105Y-80850111D01*
X113199947Y-80725764D01*
X113232185Y-80721500D01*
X114613071Y-80721500D01*
X114697615Y-80704682D01*
X114738744Y-80696501D01*
X114857127Y-80647465D01*
X114897922Y-80620207D01*
X114963669Y-80576277D01*
X115367787Y-80172157D01*
X115393585Y-80152386D01*
X115808089Y-79913740D01*
X115822432Y-79905164D01*
X115823062Y-79904773D01*
X115879355Y-79864233D01*
X115879365Y-79864221D01*
X115880660Y-79863064D01*
X115894455Y-79852368D01*
X115910289Y-79841789D01*
X116021789Y-79730289D01*
X116109394Y-79599179D01*
X116169737Y-79453497D01*
X116200500Y-79298842D01*
X116200500Y-79141158D01*
X116200500Y-79141155D01*
X116200499Y-79141153D01*
X116193253Y-79104725D01*
X116169737Y-78986503D01*
X116165354Y-78975921D01*
X116109397Y-78840827D01*
X116109390Y-78840814D01*
X116021789Y-78709711D01*
X116021786Y-78709707D01*
X115910292Y-78598213D01*
X115910288Y-78598210D01*
X115779185Y-78510609D01*
X115779172Y-78510602D01*
X115633501Y-78450264D01*
X115633489Y-78450261D01*
X115478845Y-78419500D01*
X115478842Y-78419500D01*
X115321158Y-78419500D01*
X115321155Y-78419500D01*
X115166510Y-78450261D01*
X115166498Y-78450264D01*
X115020827Y-78510602D01*
X115020814Y-78510609D01*
X114968891Y-78545304D01*
X114902214Y-78566182D01*
X114834833Y-78547698D01*
X114831109Y-78545304D01*
X114779185Y-78510609D01*
X114779172Y-78510602D01*
X114633501Y-78450264D01*
X114633489Y-78450261D01*
X114478845Y-78419500D01*
X114478842Y-78419500D01*
X114321158Y-78419500D01*
X114321150Y-78419500D01*
X114315687Y-78420587D01*
X114292521Y-78422205D01*
X114292531Y-78422918D01*
X114288110Y-78422978D01*
X113790674Y-78465415D01*
X113763311Y-78468645D01*
X113748777Y-78469500D01*
X112502395Y-78469500D01*
X112376727Y-78494497D01*
X112376721Y-78494499D01*
X112258340Y-78543534D01*
X112151792Y-78614726D01*
X112151791Y-78614727D01*
X111819099Y-78947420D01*
X111757776Y-78980905D01*
X111688084Y-78975921D01*
X111632151Y-78934049D01*
X111607734Y-78868585D01*
X111609282Y-78838321D01*
X111651073Y-78600007D01*
X111690168Y-78377067D01*
X111696170Y-78329887D01*
X111696168Y-78329869D01*
X111696193Y-78329111D01*
X111698515Y-78308818D01*
X111700500Y-78298842D01*
X111700500Y-78141158D01*
X111700500Y-78141155D01*
X111700499Y-78141153D01*
X111669738Y-77986510D01*
X111669737Y-77986503D01*
X111669735Y-77986498D01*
X111609397Y-77840827D01*
X111609390Y-77840814D01*
X111521789Y-77709711D01*
X111521786Y-77709707D01*
X111410292Y-77598213D01*
X111410288Y-77598210D01*
X111279185Y-77510609D01*
X111279172Y-77510602D01*
X111133501Y-77450264D01*
X111133489Y-77450261D01*
X110978845Y-77419500D01*
X110978842Y-77419500D01*
X110821158Y-77419500D01*
X110821155Y-77419500D01*
X110666510Y-77450261D01*
X110666498Y-77450264D01*
X110520827Y-77510602D01*
X110520814Y-77510609D01*
X110389711Y-77598210D01*
X110389707Y-77598213D01*
X110278213Y-77709707D01*
X110278210Y-77709711D01*
X110190609Y-77840814D01*
X110190602Y-77840827D01*
X110130264Y-77986498D01*
X110130261Y-77986510D01*
X110099500Y-78141153D01*
X110099500Y-78298846D01*
X110130261Y-78453493D01*
X110130264Y-78453503D01*
X110139266Y-78475236D01*
X110141257Y-78480361D01*
X110292346Y-78896439D01*
X110299793Y-78938763D01*
X110299793Y-80412619D01*
X110280108Y-80479658D01*
X110227304Y-80525413D01*
X110158146Y-80535357D01*
X110094590Y-80506332D01*
X110088112Y-80500300D01*
X108187819Y-78600007D01*
X108154334Y-78538684D01*
X108151500Y-78512326D01*
X108151500Y-74756928D01*
X108126502Y-74631261D01*
X108126501Y-74631260D01*
X108126501Y-74631256D01*
X108077465Y-74512873D01*
X108077464Y-74512872D01*
X108077461Y-74512866D01*
X108031135Y-74443535D01*
X108031134Y-74443534D01*
X108006276Y-74406330D01*
X103737819Y-70137873D01*
X103704334Y-70076550D01*
X103701500Y-70050192D01*
X103701500Y-67441153D01*
X113299500Y-67441153D01*
X113299500Y-67598846D01*
X113330261Y-67753489D01*
X113330264Y-67753501D01*
X113390602Y-67899172D01*
X113390609Y-67899185D01*
X113478210Y-68030288D01*
X113478213Y-68030292D01*
X113589707Y-68141786D01*
X113589711Y-68141789D01*
X113720814Y-68229390D01*
X113720827Y-68229397D01*
X113866498Y-68289735D01*
X113866503Y-68289737D01*
X114021153Y-68320499D01*
X114021156Y-68320500D01*
X114021158Y-68320500D01*
X114178844Y-68320500D01*
X114178845Y-68320499D01*
X114333497Y-68289737D01*
X114479179Y-68229394D01*
X114610289Y-68141789D01*
X114721789Y-68030289D01*
X114809394Y-67899179D01*
X114869737Y-67753497D01*
X114900500Y-67598842D01*
X114900500Y-67441158D01*
X114900500Y-67441155D01*
X114900499Y-67441153D01*
X114869738Y-67286510D01*
X114869737Y-67286503D01*
X114844406Y-67225347D01*
X114809397Y-67140827D01*
X114809390Y-67140814D01*
X114721789Y-67009711D01*
X114721786Y-67009707D01*
X114610292Y-66898213D01*
X114610288Y-66898210D01*
X114479185Y-66810609D01*
X114479172Y-66810602D01*
X114333501Y-66750264D01*
X114333489Y-66750261D01*
X114178845Y-66719500D01*
X114178842Y-66719500D01*
X114021158Y-66719500D01*
X114021155Y-66719500D01*
X113866510Y-66750261D01*
X113866498Y-66750264D01*
X113720827Y-66810602D01*
X113720814Y-66810609D01*
X113589711Y-66898210D01*
X113589707Y-66898213D01*
X113478213Y-67009707D01*
X113478210Y-67009711D01*
X113390609Y-67140814D01*
X113390602Y-67140827D01*
X113330264Y-67286498D01*
X113330261Y-67286510D01*
X113299500Y-67441153D01*
X103701500Y-67441153D01*
X103701500Y-50837847D01*
X103721185Y-50770808D01*
X103773989Y-50725053D01*
X103801309Y-50716230D01*
X103817291Y-50713050D01*
X103934497Y-50689737D01*
X104080179Y-50629394D01*
X104131610Y-50595028D01*
X104198285Y-50574150D01*
X104265665Y-50592634D01*
X104269361Y-50595009D01*
X104320821Y-50629394D01*
X104320823Y-50629395D01*
X104320825Y-50629396D01*
X104466498Y-50689735D01*
X104466503Y-50689737D01*
X104621153Y-50720499D01*
X104621156Y-50720500D01*
X104621158Y-50720500D01*
X104778843Y-50720500D01*
X104800308Y-50716230D01*
X104857610Y-50704831D01*
X104866914Y-50703347D01*
X104901985Y-50699111D01*
X105192960Y-50620768D01*
X105262810Y-50622346D01*
X105312877Y-50652823D01*
X110547830Y-55887776D01*
X110567611Y-55913586D01*
X110789614Y-56299179D01*
X110806268Y-56328104D01*
X110814854Y-56342464D01*
X110815215Y-56343046D01*
X110815222Y-56343056D01*
X110815226Y-56343062D01*
X110855766Y-56399355D01*
X110855767Y-56399356D01*
X110855768Y-56399357D01*
X110856946Y-56400673D01*
X110867630Y-56414454D01*
X110878211Y-56430289D01*
X110878214Y-56430292D01*
X110878217Y-56430296D01*
X110989707Y-56541786D01*
X110989711Y-56541789D01*
X111120814Y-56629390D01*
X111120827Y-56629397D01*
X111266498Y-56689735D01*
X111266503Y-56689737D01*
X111380749Y-56712462D01*
X111421153Y-56720499D01*
X111421156Y-56720500D01*
X111421158Y-56720500D01*
X111578844Y-56720500D01*
X111578845Y-56720499D01*
X111733497Y-56689737D01*
X111879179Y-56629394D01*
X112010289Y-56541789D01*
X112121789Y-56430289D01*
X112209394Y-56299179D01*
X112269737Y-56153497D01*
X112300500Y-55998842D01*
X112300500Y-55841158D01*
X112300500Y-55841155D01*
X112300499Y-55841153D01*
X112272689Y-55701344D01*
X112269737Y-55686503D01*
X112224498Y-55577285D01*
X112209397Y-55540827D01*
X112209390Y-55540814D01*
X112121789Y-55409711D01*
X112121786Y-55409707D01*
X112010292Y-55298213D01*
X112010284Y-55298207D01*
X111943534Y-55253606D01*
X111935891Y-55248068D01*
X111908090Y-55226260D01*
X111908088Y-55226258D01*
X111493586Y-54987611D01*
X111467776Y-54967830D01*
X111016144Y-54516198D01*
X110933335Y-54433389D01*
X120814500Y-54433389D01*
X120814500Y-54606610D01*
X120839665Y-54765500D01*
X120841598Y-54777701D01*
X120895127Y-54942445D01*
X120973768Y-55096788D01*
X121075586Y-55236928D01*
X121075588Y-55236930D01*
X121183127Y-55344469D01*
X121216612Y-55405792D01*
X121211628Y-55475484D01*
X121169756Y-55531417D01*
X121160544Y-55537688D01*
X121096344Y-55577287D01*
X120972289Y-55701342D01*
X120880187Y-55850663D01*
X120880186Y-55850666D01*
X120825001Y-56017203D01*
X120825001Y-56017204D01*
X120825000Y-56017204D01*
X120814500Y-56119983D01*
X120814500Y-56920001D01*
X120814501Y-56920019D01*
X120825000Y-57022796D01*
X120825001Y-57022799D01*
X120858427Y-57123671D01*
X120880186Y-57189334D01*
X120972288Y-57338656D01*
X121096344Y-57462712D01*
X121245666Y-57554814D01*
X121412203Y-57609999D01*
X121514991Y-57620500D01*
X122865008Y-57620499D01*
X122967797Y-57609999D01*
X123134334Y-57554814D01*
X123283656Y-57462712D01*
X123407712Y-57338656D01*
X123499814Y-57189334D01*
X123554999Y-57022797D01*
X123565500Y-56920009D01*
X123565499Y-56119992D01*
X123554999Y-56017203D01*
X123499814Y-55850666D01*
X123407712Y-55701344D01*
X123283656Y-55577288D01*
X123283652Y-55577285D01*
X123219456Y-55537688D01*
X123172731Y-55485740D01*
X123161510Y-55416777D01*
X123189353Y-55352695D01*
X123196850Y-55344491D01*
X123304414Y-55236928D01*
X123406232Y-55096788D01*
X123484873Y-54942445D01*
X123538402Y-54777701D01*
X123565500Y-54606611D01*
X123565500Y-54433389D01*
X123538402Y-54262299D01*
X123484873Y-54097555D01*
X123406232Y-53943212D01*
X123304414Y-53803072D01*
X123181928Y-53680586D01*
X123041788Y-53578768D01*
X122887445Y-53500127D01*
X122722701Y-53446598D01*
X122722699Y-53446597D01*
X122722698Y-53446597D01*
X122572200Y-53422761D01*
X122551611Y-53419500D01*
X121828389Y-53419500D01*
X121807800Y-53422761D01*
X121657302Y-53446597D01*
X121657299Y-53446598D01*
X121501056Y-53497365D01*
X121492552Y-53500128D01*
X121338211Y-53578768D01*
X121280774Y-53620499D01*
X121198072Y-53680586D01*
X121198070Y-53680588D01*
X121198069Y-53680588D01*
X121075588Y-53803069D01*
X121075588Y-53803070D01*
X121075586Y-53803072D01*
X121031859Y-53863256D01*
X120973768Y-53943211D01*
X120895128Y-54097552D01*
X120841597Y-54262302D01*
X120814500Y-54433389D01*
X110933335Y-54433389D01*
X105914674Y-49414727D01*
X105914673Y-49414726D01*
X105914669Y-49414723D01*
X105808127Y-49343535D01*
X105802388Y-49341158D01*
X105689744Y-49294499D01*
X105689738Y-49294497D01*
X105564071Y-49269500D01*
X105564069Y-49269500D01*
X105396068Y-49269500D01*
X105363830Y-49265236D01*
X105357322Y-49263483D01*
X105027988Y-49174813D01*
X104968374Y-49138377D01*
X104937920Y-49075494D01*
X104946299Y-49006128D01*
X104972544Y-48967400D01*
X109833127Y-44106819D01*
X109894450Y-44073334D01*
X109920808Y-44070500D01*
X110603933Y-44070500D01*
X110636171Y-44074764D01*
X111098013Y-44199111D01*
X111113580Y-44203038D01*
X111114302Y-44203208D01*
X111183500Y-44214506D01*
X111183502Y-44214505D01*
X111190001Y-44215567D01*
X111189803Y-44216775D01*
X111249238Y-44237883D01*
X111291985Y-44293150D01*
X111300500Y-44338308D01*
X111300500Y-52544817D01*
X111290972Y-52577262D01*
X111282048Y-52609899D01*
X111281032Y-52611116D01*
X111280815Y-52611856D01*
X111259437Y-52636999D01*
X111202914Y-52687853D01*
X111191828Y-52696472D01*
X111189704Y-52698216D01*
X111078213Y-52809707D01*
X111078210Y-52809711D01*
X110990609Y-52940814D01*
X110990602Y-52940827D01*
X110930264Y-53086498D01*
X110930261Y-53086510D01*
X110899500Y-53241153D01*
X110899500Y-53398846D01*
X110930261Y-53553489D01*
X110930264Y-53553501D01*
X110990602Y-53699172D01*
X110990609Y-53699185D01*
X111078210Y-53830288D01*
X111078213Y-53830292D01*
X111189707Y-53941786D01*
X111189711Y-53941789D01*
X111320814Y-54029390D01*
X111320827Y-54029397D01*
X111466498Y-54089735D01*
X111466503Y-54089737D01*
X111621153Y-54120499D01*
X111621156Y-54120500D01*
X111621158Y-54120500D01*
X111778844Y-54120500D01*
X111778845Y-54120499D01*
X111933497Y-54089737D01*
X112079179Y-54029394D01*
X112210289Y-53941789D01*
X112321789Y-53830289D01*
X112409394Y-53699179D01*
X112469737Y-53553497D01*
X112479224Y-53505798D01*
X112481211Y-53497365D01*
X112482327Y-53493271D01*
X112492669Y-53463562D01*
X112498218Y-53435033D01*
X112499427Y-53430605D01*
X112504257Y-53422761D01*
X112515951Y-53394357D01*
X112527466Y-53377126D01*
X112576501Y-53258743D01*
X112576639Y-53258047D01*
X112577064Y-53255919D01*
X112601499Y-53133073D01*
X112601500Y-53133071D01*
X112601500Y-52891717D01*
X112601679Y-52889858D01*
X112601500Y-52857846D01*
X112601500Y-52448018D01*
X112621185Y-52380979D01*
X112673989Y-52335224D01*
X112743147Y-52325280D01*
X112794391Y-52344916D01*
X112920814Y-52429390D01*
X112920827Y-52429397D01*
X113066498Y-52489735D01*
X113066503Y-52489737D01*
X113221153Y-52520499D01*
X113221156Y-52520500D01*
X113221158Y-52520500D01*
X113378844Y-52520500D01*
X113378845Y-52520499D01*
X113533497Y-52489737D01*
X113651592Y-52440821D01*
X113679172Y-52429397D01*
X113679172Y-52429396D01*
X113679179Y-52429394D01*
X113810289Y-52341789D01*
X113812312Y-52339766D01*
X113813634Y-52339043D01*
X113814999Y-52337924D01*
X113815211Y-52338182D01*
X113873632Y-52306276D01*
X113943324Y-52311255D01*
X113984939Y-52337999D01*
X113985001Y-52337924D01*
X113985648Y-52338454D01*
X113987688Y-52339766D01*
X113989711Y-52341789D01*
X114120814Y-52429390D01*
X114120827Y-52429397D01*
X114266498Y-52489735D01*
X114266503Y-52489737D01*
X114421153Y-52520499D01*
X114421156Y-52520500D01*
X114421158Y-52520500D01*
X114578844Y-52520500D01*
X114578845Y-52520499D01*
X114733497Y-52489737D01*
X114851592Y-52440821D01*
X114879172Y-52429397D01*
X114879172Y-52429396D01*
X114879179Y-52429394D01*
X115010289Y-52341789D01*
X115121789Y-52230289D01*
X115209394Y-52099179D01*
X115269737Y-51953497D01*
X115300500Y-51798842D01*
X115300500Y-51641158D01*
X115300500Y-51641155D01*
X115300499Y-51641153D01*
X115269738Y-51486510D01*
X115269737Y-51486503D01*
X115269735Y-51486498D01*
X115209397Y-51340827D01*
X115209390Y-51340814D01*
X115121789Y-51209711D01*
X115121786Y-51209707D01*
X115010292Y-51098213D01*
X115010284Y-51098207D01*
X114943534Y-51053606D01*
X114935891Y-51048068D01*
X114908090Y-51026260D01*
X114908088Y-51026258D01*
X114493586Y-50787611D01*
X114467776Y-50767830D01*
X113686819Y-49986873D01*
X113653334Y-49925550D01*
X113650500Y-49899192D01*
X113650500Y-41433389D01*
X120814500Y-41433389D01*
X120814500Y-41606610D01*
X120832773Y-41721986D01*
X120841598Y-41777701D01*
X120895127Y-41942445D01*
X120973768Y-42096788D01*
X121075586Y-42236928D01*
X121075588Y-42236930D01*
X121183127Y-42344469D01*
X121216612Y-42405792D01*
X121211628Y-42475484D01*
X121169756Y-42531417D01*
X121160544Y-42537688D01*
X121096344Y-42577287D01*
X120972289Y-42701342D01*
X120880187Y-42850663D01*
X120880185Y-42850668D01*
X120858958Y-42914727D01*
X120825001Y-43017203D01*
X120825001Y-43017204D01*
X120825000Y-43017204D01*
X120814500Y-43119983D01*
X120814500Y-43920001D01*
X120814501Y-43920019D01*
X120825000Y-44022796D01*
X120825001Y-44022799D01*
X120880185Y-44189331D01*
X120880187Y-44189336D01*
X120897112Y-44216775D01*
X120972288Y-44338656D01*
X121096344Y-44462712D01*
X121245666Y-44554814D01*
X121412203Y-44609999D01*
X121514991Y-44620500D01*
X122865008Y-44620499D01*
X122967797Y-44609999D01*
X123134334Y-44554814D01*
X123283656Y-44462712D01*
X123407712Y-44338656D01*
X123499814Y-44189334D01*
X123554999Y-44022797D01*
X123565500Y-43920009D01*
X123565499Y-43119992D01*
X123554999Y-43017203D01*
X123499814Y-42850666D01*
X123407712Y-42701344D01*
X123283656Y-42577288D01*
X123283652Y-42577285D01*
X123219456Y-42537688D01*
X123172731Y-42485740D01*
X123161510Y-42416777D01*
X123189353Y-42352695D01*
X123196850Y-42344491D01*
X123304414Y-42236928D01*
X123406232Y-42096788D01*
X123484873Y-41942445D01*
X123538402Y-41777701D01*
X123565500Y-41606611D01*
X123565500Y-41433389D01*
X123538402Y-41262299D01*
X123484873Y-41097555D01*
X123406232Y-40943212D01*
X123304414Y-40803072D01*
X123181928Y-40680586D01*
X123041788Y-40578768D01*
X122887445Y-40500127D01*
X122722701Y-40446598D01*
X122722699Y-40446597D01*
X122722698Y-40446597D01*
X122591271Y-40425781D01*
X122551611Y-40419500D01*
X121828389Y-40419500D01*
X121788728Y-40425781D01*
X121657302Y-40446597D01*
X121657299Y-40446598D01*
X121534464Y-40486510D01*
X121492552Y-40500128D01*
X121338211Y-40578768D01*
X121258256Y-40636859D01*
X121198072Y-40680586D01*
X121198070Y-40680588D01*
X121198069Y-40680588D01*
X121075588Y-40803069D01*
X121075588Y-40803070D01*
X121075586Y-40803072D01*
X121031859Y-40863256D01*
X120973768Y-40943211D01*
X120895128Y-41097552D01*
X120841597Y-41262302D01*
X120814500Y-41433389D01*
X113650500Y-41433389D01*
X113650500Y-40422807D01*
X113670185Y-40355768D01*
X113686815Y-40335130D01*
X114408784Y-39613160D01*
X114434585Y-39593386D01*
X114849089Y-39354740D01*
X114863432Y-39346164D01*
X114864062Y-39345773D01*
X114920355Y-39305233D01*
X114920365Y-39305221D01*
X114921660Y-39304064D01*
X114935455Y-39293368D01*
X114951289Y-39282789D01*
X115062789Y-39171289D01*
X115150394Y-39040179D01*
X115210737Y-38894497D01*
X115241500Y-38739842D01*
X115241500Y-38582158D01*
X115241500Y-38582155D01*
X115241499Y-38582153D01*
X115210738Y-38427510D01*
X115210737Y-38427503D01*
X115210735Y-38427498D01*
X115150397Y-38281827D01*
X115150390Y-38281814D01*
X115062789Y-38150711D01*
X115062786Y-38150707D01*
X114951292Y-38039213D01*
X114951288Y-38039210D01*
X114820185Y-37951609D01*
X114820172Y-37951602D01*
X114674501Y-37891264D01*
X114674489Y-37891261D01*
X114519845Y-37860500D01*
X114519842Y-37860500D01*
X114362158Y-37860500D01*
X114362155Y-37860500D01*
X114207510Y-37891261D01*
X114207498Y-37891264D01*
X114061828Y-37951602D01*
X114061817Y-37951608D01*
X114010138Y-37986139D01*
X113943460Y-38007016D01*
X113876080Y-37988531D01*
X113872357Y-37986138D01*
X113819185Y-37950609D01*
X113819172Y-37950602D01*
X113673501Y-37890264D01*
X113673489Y-37890261D01*
X113518845Y-37859500D01*
X113518842Y-37859500D01*
X113361158Y-37859500D01*
X113361155Y-37859500D01*
X113206510Y-37890261D01*
X113206498Y-37890264D01*
X113060827Y-37950602D01*
X113060814Y-37950609D01*
X112929712Y-38038209D01*
X112818208Y-38149714D01*
X112818207Y-38149716D01*
X112773613Y-38216454D01*
X112768079Y-38224091D01*
X112746260Y-38251907D01*
X112746258Y-38251910D01*
X112556120Y-38582158D01*
X112507611Y-38666412D01*
X112487830Y-38692222D01*
X111994725Y-39185328D01*
X111994722Y-39185332D01*
X111960556Y-39236464D01*
X111960557Y-39236465D01*
X111923534Y-39291874D01*
X111874499Y-39410255D01*
X111874497Y-39410261D01*
X111849500Y-39535928D01*
X111849500Y-39854155D01*
X111829815Y-39921194D01*
X111777011Y-39966949D01*
X111707853Y-39976893D01*
X111678048Y-39968716D01*
X111633501Y-39950264D01*
X111633489Y-39950261D01*
X111478845Y-39919500D01*
X111478842Y-39919500D01*
X111321158Y-39919500D01*
X111242411Y-39935162D01*
X111233097Y-39936649D01*
X111198013Y-39940888D01*
X110736168Y-40065236D01*
X110703930Y-40069500D01*
X108835929Y-40069500D01*
X108710261Y-40094497D01*
X108710257Y-40094498D01*
X108684236Y-40105277D01*
X108684235Y-40105277D01*
X108591881Y-40143530D01*
X108591863Y-40143540D01*
X108485332Y-40214721D01*
X108485325Y-40214727D01*
X107394727Y-41305325D01*
X107394721Y-41305332D01*
X107332870Y-41397899D01*
X107332871Y-41397900D01*
X107323534Y-41411874D01*
X107274499Y-41530255D01*
X107274497Y-41530261D01*
X107249500Y-41655928D01*
X107249500Y-43499191D01*
X107229815Y-43566230D01*
X107213181Y-43586872D01*
X106232224Y-44567828D01*
X106206414Y-44587609D01*
X105791894Y-44826268D01*
X105777534Y-44834854D01*
X105776952Y-44835215D01*
X105776926Y-44835232D01*
X105720645Y-44875764D01*
X105719317Y-44876953D01*
X105705537Y-44887636D01*
X105689708Y-44898213D01*
X105689704Y-44898217D01*
X105578213Y-45009707D01*
X105578210Y-45009711D01*
X105490609Y-45140814D01*
X105490602Y-45140827D01*
X105430264Y-45286498D01*
X105430261Y-45286510D01*
X105399500Y-45441153D01*
X105399500Y-45598846D01*
X105430261Y-45753489D01*
X105430264Y-45753501D01*
X105490602Y-45899172D01*
X105490609Y-45899185D01*
X105578210Y-46030288D01*
X105578213Y-46030292D01*
X105689707Y-46141786D01*
X105689711Y-46141789D01*
X105725066Y-46165413D01*
X105769871Y-46219025D01*
X105778578Y-46288350D01*
X105748423Y-46351378D01*
X105743856Y-46356196D01*
X103913181Y-48186872D01*
X103851858Y-48220357D01*
X103782166Y-48215373D01*
X103726233Y-48173501D01*
X103701816Y-48108037D01*
X103701500Y-48099191D01*
X103701500Y-41186274D01*
X103676502Y-41060607D01*
X103676501Y-41060606D01*
X103676501Y-41060602D01*
X103647891Y-40991531D01*
X103627466Y-40942220D01*
X103556277Y-40835677D01*
X103556272Y-40835671D01*
X103384584Y-40663984D01*
X103370436Y-40645675D01*
X103369817Y-40646101D01*
X103367315Y-40642460D01*
X103051228Y-40246388D01*
X103032964Y-40224932D01*
X103024286Y-40213448D01*
X103021790Y-40209713D01*
X103021789Y-40209711D01*
X102910289Y-40098211D01*
X102910288Y-40098210D01*
X102910287Y-40098209D01*
X102779185Y-40010609D01*
X102779172Y-40010602D01*
X102633501Y-39950264D01*
X102633489Y-39950261D01*
X102478845Y-39919500D01*
X102478842Y-39919500D01*
X102321158Y-39919500D01*
X102321155Y-39919500D01*
X102166510Y-39950261D01*
X102166498Y-39950264D01*
X102020827Y-40010602D01*
X102020814Y-40010609D01*
X101889711Y-40098210D01*
X101889707Y-40098213D01*
X101778213Y-40209707D01*
X101778210Y-40209711D01*
X101690609Y-40340814D01*
X101690602Y-40340827D01*
X101630264Y-40486498D01*
X101630261Y-40486510D01*
X101599500Y-40641153D01*
X101599500Y-40798846D01*
X101630261Y-40953489D01*
X101630264Y-40953501D01*
X101679574Y-41072548D01*
X101687043Y-41142018D01*
X101679574Y-41167452D01*
X101630264Y-41286498D01*
X101630261Y-41286510D01*
X101599500Y-41441153D01*
X101599500Y-41441158D01*
X101599500Y-41598842D01*
X101599500Y-41598844D01*
X101599499Y-41598844D01*
X101615162Y-41677580D01*
X101616650Y-41686901D01*
X101620887Y-41721984D01*
X101745236Y-42183828D01*
X101749500Y-42216066D01*
X101749500Y-70884068D01*
X101755598Y-70914721D01*
X101755598Y-70914725D01*
X101774497Y-71009736D01*
X101774499Y-71009744D01*
X101822467Y-71125550D01*
X101823535Y-71128127D01*
X101894723Y-71234669D01*
X101894726Y-71234673D01*
X101894727Y-71234674D01*
X104917873Y-74257819D01*
X104951358Y-74319142D01*
X104946374Y-74388834D01*
X104904502Y-74444767D01*
X104839038Y-74469184D01*
X104830192Y-74469500D01*
X103920807Y-74469500D01*
X103853768Y-74449815D01*
X103833126Y-74433181D01*
X100586819Y-71186873D01*
X100553334Y-71125550D01*
X100550500Y-71099192D01*
X100550500Y-50116064D01*
X100554764Y-50083826D01*
X100580868Y-49986873D01*
X100679111Y-49621985D01*
X100683038Y-49606419D01*
X100683208Y-49605697D01*
X100694506Y-49536499D01*
X100694505Y-49536488D01*
X100694602Y-49534771D01*
X100696793Y-49517475D01*
X100700500Y-49498844D01*
X100700500Y-49498842D01*
X100700500Y-49341158D01*
X100700500Y-49341155D01*
X100700499Y-49341153D01*
X100669738Y-49186510D01*
X100669737Y-49186503D01*
X100623756Y-49075494D01*
X100609397Y-49040827D01*
X100609390Y-49040814D01*
X100521789Y-48909711D01*
X100521786Y-48909707D01*
X100410292Y-48798213D01*
X100410288Y-48798210D01*
X100279185Y-48710609D01*
X100279172Y-48710602D01*
X100133501Y-48650264D01*
X100133489Y-48650261D01*
X99978845Y-48619500D01*
X99978842Y-48619500D01*
X99821158Y-48619500D01*
X99821155Y-48619500D01*
X99666510Y-48650261D01*
X99666498Y-48650264D01*
X99547452Y-48699574D01*
X99477982Y-48707043D01*
X99452548Y-48699574D01*
X99333501Y-48650264D01*
X99333489Y-48650261D01*
X99178845Y-48619500D01*
X99178842Y-48619500D01*
X99021158Y-48619500D01*
X99021155Y-48619500D01*
X98866510Y-48650261D01*
X98866498Y-48650264D01*
X98720827Y-48710602D01*
X98720814Y-48710609D01*
X98589711Y-48798210D01*
X98589707Y-48798213D01*
X98478213Y-48909707D01*
X98478210Y-48909711D01*
X98390609Y-49040814D01*
X98390602Y-49040827D01*
X98330264Y-49186498D01*
X98330261Y-49186510D01*
X98299500Y-49341153D01*
X98299500Y-49341158D01*
X98299500Y-49498842D01*
X98299500Y-49498844D01*
X98299499Y-49498844D01*
X86000500Y-49498844D01*
X86000500Y-36644500D01*
X86020185Y-36577461D01*
X86072989Y-36531706D01*
X86124500Y-36520500D01*
X123875500Y-36520500D01*
X123942539Y-36540185D01*
G37*
%TD.AperFunction*%
%TD*%
%TA.AperFunction,Conductor*%
%TO.N,/MCU/~{SD_MODE}_1*%
G36*
X104770564Y-49629005D02*
G01*
X104803910Y-49637983D01*
X105285579Y-49767669D01*
X105292676Y-49773128D01*
X105294236Y-49778966D01*
X105294236Y-50061033D01*
X105290809Y-50069306D01*
X105285578Y-50072331D01*
X104770564Y-50210994D01*
X104761684Y-50209836D01*
X104756224Y-50202738D01*
X104756059Y-50202039D01*
X104699469Y-49922318D01*
X104699469Y-49917680D01*
X104756055Y-49637980D01*
X104761054Y-49630554D01*
X104769842Y-49628835D01*
X104770564Y-49629005D01*
G37*
%TD.AperFunction*%
%TD*%
%TA.AperFunction,Conductor*%
%TO.N,/MCU/~{SD_MODE}_1*%
G36*
X111193646Y-55398218D02*
G01*
X111478798Y-55562392D01*
X111655867Y-55664339D01*
X111661327Y-55671437D01*
X111660169Y-55680317D01*
X111659778Y-55680947D01*
X111502015Y-55918734D01*
X111498734Y-55922015D01*
X111260947Y-56079778D01*
X111252159Y-56081497D01*
X111244730Y-56076497D01*
X111244339Y-56075867D01*
X111016966Y-55680947D01*
X110978218Y-55613646D01*
X110977061Y-55604768D01*
X110980084Y-55599539D01*
X111179538Y-55400085D01*
X111187810Y-55396659D01*
X111193646Y-55398218D01*
G37*
%TD.AperFunction*%
%TD*%
%TA.AperFunction,Conductor*%
%TO.N,/MCU/~{SD_MODE}_2*%
G36*
X103850306Y-49329191D02*
G01*
X103853331Y-49334422D01*
X103991994Y-49849435D01*
X103990836Y-49858315D01*
X103983738Y-49863775D01*
X103983016Y-49863945D01*
X103703320Y-49920530D01*
X103698680Y-49920530D01*
X103418983Y-49863945D01*
X103411554Y-49858945D01*
X103409835Y-49850157D01*
X103410005Y-49849435D01*
X103548669Y-49334422D01*
X103554129Y-49327324D01*
X103559967Y-49325764D01*
X103842033Y-49325764D01*
X103850306Y-49329191D01*
G37*
%TD.AperFunction*%
%TD*%
%TA.AperFunction,Conductor*%
%TO.N,/MCU/~{SD_MODE}_2*%
G36*
X111238315Y-43130163D02*
G01*
X111243775Y-43137261D01*
X111243945Y-43137983D01*
X111300530Y-43417680D01*
X111300530Y-43422320D01*
X111243945Y-43702016D01*
X111238945Y-43709445D01*
X111230157Y-43711164D01*
X111229435Y-43710994D01*
X110714422Y-43572331D01*
X110707324Y-43566871D01*
X110705764Y-43561033D01*
X110705764Y-43278966D01*
X110709191Y-43270693D01*
X110714419Y-43267669D01*
X111229435Y-43129005D01*
X111238315Y-43130163D01*
G37*
%TD.AperFunction*%
%TD*%
%TA.AperFunction,Conductor*%
%TO.N,ESP32_TX*%
G36*
X102656124Y-40561704D02*
G01*
X102972210Y-40957774D01*
X102974692Y-40966378D01*
X102971338Y-40973345D01*
X102774522Y-41170162D01*
X102766249Y-41173589D01*
X102757976Y-41170162D01*
X102707315Y-41119501D01*
X102707310Y-41119497D01*
X102593188Y-41053608D01*
X102593184Y-41053606D01*
X102465894Y-41019500D01*
X102465892Y-41019500D01*
X102357307Y-41019500D01*
X102353101Y-41018717D01*
X102350633Y-41017766D01*
X102344148Y-41011593D01*
X102343362Y-41004599D01*
X102350939Y-40965949D01*
X102398353Y-40724085D01*
X102403304Y-40716631D01*
X102640512Y-40559252D01*
X102649299Y-40557534D01*
X102656124Y-40561704D01*
G37*
%TD.AperFunction*%
%TD*%
%TA.AperFunction,Conductor*%
%TO.N,ESP32_TX*%
G36*
X109912575Y-81027701D02*
G01*
X110346677Y-81123999D01*
X110354011Y-81129136D01*
X110355624Y-81137672D01*
X110300454Y-81419093D01*
X110298680Y-81423374D01*
X110140492Y-81658451D01*
X110133030Y-81663402D01*
X110124253Y-81661626D01*
X110122576Y-81660256D01*
X109702579Y-81246716D01*
X109699088Y-81238470D01*
X109702450Y-81230171D01*
X109901771Y-81030850D01*
X109910043Y-81027424D01*
X109912575Y-81027701D01*
G37*
%TD.AperFunction*%
%TD*%
%TA.AperFunction,Conductor*%
%TO.N,ESP32_RX*%
G36*
X109617696Y-81451534D02*
G01*
X109898382Y-81727904D01*
X109898461Y-81727982D01*
X110037529Y-81867535D01*
X110040941Y-81875814D01*
X110037500Y-81884082D01*
X110035773Y-81885501D01*
X109800768Y-82043641D01*
X109796487Y-82045415D01*
X109514971Y-82100603D01*
X109506193Y-82098832D01*
X109501320Y-82091753D01*
X109401472Y-81659118D01*
X109402950Y-81650286D01*
X109404595Y-81648218D01*
X109601217Y-81451596D01*
X109609487Y-81448171D01*
X109617696Y-81451534D01*
G37*
%TD.AperFunction*%
%TD*%
%TA.AperFunction,Conductor*%
%TO.N,ESP32_RX*%
G36*
X102682017Y-41576055D02*
G01*
X102689445Y-41581054D01*
X102691164Y-41589842D01*
X102690994Y-41590564D01*
X102552331Y-42105578D01*
X102546871Y-42112676D01*
X102541033Y-42114236D01*
X102258967Y-42114236D01*
X102250694Y-42110809D01*
X102247669Y-42105578D01*
X102109005Y-41590564D01*
X102110163Y-41581684D01*
X102117261Y-41576224D01*
X102117953Y-41576060D01*
X102397682Y-41519469D01*
X102402318Y-41519469D01*
X102682017Y-41576055D01*
G37*
%TD.AperFunction*%
%TD*%
%TA.AperFunction,Conductor*%
%TO.N,/MCU/SUSPEND*%
G36*
X105638315Y-75830163D02*
G01*
X105643775Y-75837261D01*
X105643945Y-75837983D01*
X105700530Y-76117680D01*
X105700530Y-76122320D01*
X105643945Y-76402016D01*
X105638945Y-76409445D01*
X105630157Y-76411164D01*
X105629435Y-76410994D01*
X105114422Y-76272331D01*
X105107324Y-76266871D01*
X105105764Y-76261033D01*
X105105764Y-75978966D01*
X105109191Y-75970693D01*
X105114419Y-75967669D01*
X105629435Y-75829005D01*
X105638315Y-75830163D01*
G37*
%TD.AperFunction*%
%TD*%
%TA.AperFunction,Conductor*%
%TO.N,/MCU/SUSPEND*%
G36*
X99382017Y-49476055D02*
G01*
X99389445Y-49481054D01*
X99391164Y-49489842D01*
X99390994Y-49490564D01*
X99252331Y-50005578D01*
X99246871Y-50012676D01*
X99241033Y-50014236D01*
X98958967Y-50014236D01*
X98950694Y-50010809D01*
X98947669Y-50005578D01*
X98809005Y-49490564D01*
X98810163Y-49481684D01*
X98817261Y-49476224D01*
X98817953Y-49476060D01*
X99097682Y-49419469D01*
X99102318Y-49419469D01*
X99382017Y-49476055D01*
G37*
%TD.AperFunction*%
%TD*%
%TA.AperFunction,Conductor*%
%TO.N,/MCU/~{SUSPEND}*%
G36*
X105638315Y-74830163D02*
G01*
X105643775Y-74837261D01*
X105643945Y-74837983D01*
X105700530Y-75117680D01*
X105700530Y-75122320D01*
X105643945Y-75402016D01*
X105638945Y-75409445D01*
X105630157Y-75411164D01*
X105629435Y-75410994D01*
X105114422Y-75272331D01*
X105107324Y-75266871D01*
X105105764Y-75261033D01*
X105105764Y-74978966D01*
X105109191Y-74970693D01*
X105114419Y-74967669D01*
X105629435Y-74829005D01*
X105638315Y-74830163D01*
G37*
%TD.AperFunction*%
%TD*%
%TA.AperFunction,Conductor*%
%TO.N,/MCU/~{SUSPEND}*%
G36*
X100182017Y-49476055D02*
G01*
X100189445Y-49481054D01*
X100191164Y-49489842D01*
X100190994Y-49490564D01*
X100052331Y-50005578D01*
X100046871Y-50012676D01*
X100041033Y-50014236D01*
X99758967Y-50014236D01*
X99750694Y-50010809D01*
X99747669Y-50005578D01*
X99609005Y-49490564D01*
X99610163Y-49481684D01*
X99617261Y-49476224D01*
X99617953Y-49476060D01*
X99897682Y-49419469D01*
X99902318Y-49419469D01*
X100182017Y-49476055D01*
G37*
%TD.AperFunction*%
%TD*%
%TA.AperFunction,Conductor*%
%TO.N,/MCU/VIO*%
G36*
X117582017Y-82076055D02*
G01*
X117589445Y-82081054D01*
X117591164Y-82089842D01*
X117590994Y-82090564D01*
X117452331Y-82605578D01*
X117446871Y-82612676D01*
X117441033Y-82614236D01*
X117158967Y-82614236D01*
X117150694Y-82610809D01*
X117147669Y-82605578D01*
X117009005Y-82090564D01*
X117010163Y-82081684D01*
X117017261Y-82076224D01*
X117017953Y-82076060D01*
X117297682Y-82019469D01*
X117302318Y-82019469D01*
X117582017Y-82076055D01*
G37*
%TD.AperFunction*%
%TD*%
%TA.AperFunction,Conductor*%
%TO.N,/MCU/VIO*%
G36*
X123460317Y-74859830D02*
G01*
X123460947Y-74860221D01*
X123698734Y-75017984D01*
X123702015Y-75021265D01*
X123859778Y-75259052D01*
X123861497Y-75267840D01*
X123856497Y-75275269D01*
X123855867Y-75275660D01*
X123393648Y-75541780D01*
X123384768Y-75542938D01*
X123379537Y-75539913D01*
X123180086Y-75340462D01*
X123176659Y-75332189D01*
X123178218Y-75326354D01*
X123444339Y-74864131D01*
X123451437Y-74858672D01*
X123460317Y-74859830D01*
G37*
%TD.AperFunction*%
%TD*%
%TA.AperFunction,Conductor*%
%TO.N,/MCU/VIO*%
G36*
X117449306Y-81429191D02*
G01*
X117452331Y-81434422D01*
X117590994Y-81949435D01*
X117589836Y-81958315D01*
X117582738Y-81963775D01*
X117582016Y-81963945D01*
X117302320Y-82020530D01*
X117297680Y-82020530D01*
X117017983Y-81963945D01*
X117010554Y-81958945D01*
X117008835Y-81950157D01*
X117009005Y-81949435D01*
X117147669Y-81434422D01*
X117153129Y-81427324D01*
X117158967Y-81425764D01*
X117441033Y-81425764D01*
X117449306Y-81429191D01*
G37*
%TD.AperFunction*%
%TD*%
%TA.AperFunction,Conductor*%
%TO.N,/MCU/VIO*%
G36*
X114894306Y-85829191D02*
G01*
X114897331Y-85834422D01*
X115035994Y-86349435D01*
X115034836Y-86358315D01*
X115027738Y-86363775D01*
X115027016Y-86363945D01*
X114747320Y-86420530D01*
X114742680Y-86420530D01*
X114462983Y-86363945D01*
X114455554Y-86358945D01*
X114453835Y-86350157D01*
X114454005Y-86349435D01*
X114592669Y-85834422D01*
X114598129Y-85827324D01*
X114603967Y-85825764D01*
X114886033Y-85825764D01*
X114894306Y-85829191D01*
G37*
%TD.AperFunction*%
%TD*%
%TA.AperFunction,Conductor*%
%TO.N,/Battery_Charger/P_VBUS*%
G36*
X106283499Y-85169113D02*
G01*
X106291462Y-85173209D01*
X106294236Y-85180773D01*
X106294236Y-85659226D01*
X106290809Y-85667499D01*
X106283499Y-85670886D01*
X105768895Y-85713379D01*
X105760368Y-85710645D01*
X105756464Y-85704039D01*
X105699469Y-85422320D01*
X105699469Y-85417680D01*
X105749578Y-85170000D01*
X105756464Y-85135959D01*
X105761464Y-85128531D01*
X105768894Y-85126620D01*
X106283499Y-85169113D01*
G37*
%TD.AperFunction*%
%TD*%
%TA.AperFunction,Conductor*%
%TO.N,/Battery_Charger/P_VBUS*%
G36*
X119239631Y-90229354D02*
G01*
X119243535Y-90235960D01*
X119300530Y-90517680D01*
X119300530Y-90522320D01*
X119243535Y-90804039D01*
X119238535Y-90811468D01*
X119231104Y-90813379D01*
X118716501Y-90770886D01*
X118708538Y-90766790D01*
X118705764Y-90759226D01*
X118705764Y-90280773D01*
X118709191Y-90272500D01*
X118716499Y-90269113D01*
X119231104Y-90226620D01*
X119239631Y-90229354D01*
G37*
%TD.AperFunction*%
%TD*%
%TA.AperFunction,Conductor*%
%TO.N,/MCU/LRCLK*%
G36*
X114193646Y-51198218D02*
G01*
X114478798Y-51362392D01*
X114655867Y-51464339D01*
X114661327Y-51471437D01*
X114660169Y-51480317D01*
X114659778Y-51480947D01*
X114502015Y-51718734D01*
X114498734Y-51722015D01*
X114260947Y-51879778D01*
X114252159Y-51881497D01*
X114244730Y-51876497D01*
X114244339Y-51875867D01*
X114016966Y-51480947D01*
X113978218Y-51413646D01*
X113977061Y-51404768D01*
X113980084Y-51399539D01*
X114179538Y-51200085D01*
X114187810Y-51196659D01*
X114193646Y-51198218D01*
G37*
%TD.AperFunction*%
%TD*%
%TA.AperFunction,Conductor*%
%TO.N,/MCU/LRCLK*%
G36*
X114201317Y-38500830D02*
G01*
X114201947Y-38501221D01*
X114439734Y-38658984D01*
X114443015Y-38662265D01*
X114600778Y-38900052D01*
X114602497Y-38908840D01*
X114597497Y-38916269D01*
X114596867Y-38916660D01*
X114134648Y-39182780D01*
X114125768Y-39183938D01*
X114120537Y-39180913D01*
X113921086Y-38981462D01*
X113917659Y-38973189D01*
X113919218Y-38967354D01*
X114185339Y-38505131D01*
X114192437Y-38499672D01*
X114201317Y-38500830D01*
G37*
%TD.AperFunction*%
%TD*%
%TA.AperFunction,Conductor*%
%TO.N,/MCU/BCLK*%
G36*
X113200317Y-38499830D02*
G01*
X113200947Y-38500221D01*
X113438734Y-38657984D01*
X113442015Y-38661265D01*
X113599778Y-38899052D01*
X113601497Y-38907840D01*
X113596497Y-38915269D01*
X113595867Y-38915660D01*
X113133648Y-39181780D01*
X113124768Y-39182938D01*
X113119537Y-39179913D01*
X112920086Y-38980462D01*
X112916659Y-38972189D01*
X112918218Y-38966354D01*
X113184339Y-38504131D01*
X113191437Y-38498672D01*
X113200317Y-38499830D01*
G37*
%TD.AperFunction*%
%TD*%
%TA.AperFunction,Conductor*%
%TO.N,/MCU/BCLK*%
G36*
X112993646Y-51198218D02*
G01*
X113278798Y-51362392D01*
X113455867Y-51464339D01*
X113461327Y-51471437D01*
X113460169Y-51480317D01*
X113459778Y-51480947D01*
X113302015Y-51718734D01*
X113298734Y-51722015D01*
X113060947Y-51879778D01*
X113052159Y-51881497D01*
X113044730Y-51876497D01*
X113044339Y-51875867D01*
X112816966Y-51480947D01*
X112778218Y-51413646D01*
X112777061Y-51404768D01*
X112780084Y-51399539D01*
X112979538Y-51200085D01*
X112987810Y-51196659D01*
X112993646Y-51198218D01*
G37*
%TD.AperFunction*%
%TD*%
%TA.AperFunction,Conductor*%
%TO.N,/MCU/DIN*%
G36*
X106520462Y-45000086D02*
G01*
X106719913Y-45199537D01*
X106723340Y-45207810D01*
X106721780Y-45213648D01*
X106455660Y-45675867D01*
X106448562Y-45681327D01*
X106439682Y-45680169D01*
X106439052Y-45679778D01*
X106201265Y-45522015D01*
X106197984Y-45518734D01*
X106040221Y-45280947D01*
X106038502Y-45272159D01*
X106043502Y-45264730D01*
X106044132Y-45264339D01*
X106506353Y-44998218D01*
X106515231Y-44997061D01*
X106520462Y-45000086D01*
G37*
%TD.AperFunction*%
%TD*%
%TA.AperFunction,Conductor*%
%TO.N,/MCU/DIN*%
G36*
X111338315Y-40430163D02*
G01*
X111343775Y-40437261D01*
X111343945Y-40437983D01*
X111400530Y-40717680D01*
X111400530Y-40722320D01*
X111343945Y-41002016D01*
X111338945Y-41009445D01*
X111330157Y-41011164D01*
X111329435Y-41010994D01*
X110814422Y-40872331D01*
X110807324Y-40866871D01*
X110805764Y-40861033D01*
X110805764Y-40578966D01*
X110809191Y-40570693D01*
X110814419Y-40567669D01*
X111329435Y-40429005D01*
X111338315Y-40430163D01*
G37*
%TD.AperFunction*%
%TD*%
%TA.AperFunction,Conductor*%
%TO.N,/MCU/DIN*%
G36*
X111655269Y-40563502D02*
G01*
X111655660Y-40564132D01*
X111921780Y-41026351D01*
X111922938Y-41035231D01*
X111919913Y-41040462D01*
X111720462Y-41239913D01*
X111712189Y-41243340D01*
X111706351Y-41241780D01*
X111244132Y-40975660D01*
X111238672Y-40968562D01*
X111239830Y-40959682D01*
X111240210Y-40959068D01*
X111397985Y-40721263D01*
X111401263Y-40717985D01*
X111639053Y-40560220D01*
X111647840Y-40558502D01*
X111655269Y-40563502D01*
G37*
%TD.AperFunction*%
%TD*%
%TA.AperFunction,Conductor*%
%TO.N,/MCU/DIN*%
G36*
X112095077Y-52833159D02*
G01*
X112098504Y-52841432D01*
X112098289Y-52843666D01*
X111996472Y-53367030D01*
X111991528Y-53374497D01*
X111982753Y-53376281D01*
X111982742Y-53376279D01*
X111704790Y-53321936D01*
X111697328Y-53316985D01*
X111697295Y-53316935D01*
X111538931Y-53078976D01*
X111537200Y-53070190D01*
X111540846Y-53063796D01*
X111797664Y-52832734D01*
X111805489Y-52829732D01*
X112086804Y-52829732D01*
X112095077Y-52833159D01*
G37*
%TD.AperFunction*%
%TD*%
%TA.AperFunction,Conductor*%
%TO.N,Net-(U502-~{RTS})*%
G36*
X111686656Y-79804485D02*
G01*
X111688117Y-79805725D01*
X111887123Y-80004731D01*
X111890549Y-80012870D01*
X111894418Y-80351777D01*
X111891086Y-80360089D01*
X111885023Y-80363382D01*
X111604372Y-80419745D01*
X111595586Y-80418014D01*
X111595536Y-80417981D01*
X111360846Y-80260054D01*
X111355895Y-80252592D01*
X111357671Y-80243815D01*
X111357865Y-80243535D01*
X111670332Y-79807184D01*
X111677934Y-79802455D01*
X111686656Y-79804485D01*
G37*
%TD.AperFunction*%
%TD*%
%TA.AperFunction,Conductor*%
%TO.N,Net-(U502-~{RTS})*%
G36*
X114339613Y-78929362D02*
G01*
X114343541Y-78935988D01*
X114400030Y-79215210D01*
X114398311Y-79223998D01*
X114398272Y-79224057D01*
X114239003Y-79460998D01*
X114231544Y-79465952D01*
X114224179Y-79464994D01*
X113829529Y-79273200D01*
X113823586Y-79266502D01*
X113822943Y-79262677D01*
X113822943Y-78980744D01*
X113826370Y-78972471D01*
X113833646Y-78969086D01*
X114331079Y-78926650D01*
X114339613Y-78929362D01*
G37*
%TD.AperFunction*%
%TD*%
%TA.AperFunction,Conductor*%
%TO.N,Net-(U502-~{CTS})*%
G36*
X115160317Y-79059830D02*
G01*
X115160947Y-79060221D01*
X115398734Y-79217984D01*
X115402015Y-79221265D01*
X115559778Y-79459052D01*
X115561497Y-79467840D01*
X115556497Y-79475269D01*
X115555867Y-79475660D01*
X115093648Y-79741780D01*
X115084768Y-79742938D01*
X115079537Y-79739913D01*
X114880086Y-79540462D01*
X114876659Y-79532189D01*
X114878218Y-79526354D01*
X115144339Y-79064131D01*
X115151437Y-79058672D01*
X115160317Y-79059830D01*
G37*
%TD.AperFunction*%
%TD*%
%TA.AperFunction,Conductor*%
%TO.N,Net-(U502-~{CTS})*%
G36*
X112606684Y-79780005D02*
G01*
X112640030Y-79788983D01*
X113121699Y-79918669D01*
X113128796Y-79924128D01*
X113130356Y-79929966D01*
X113130356Y-80212033D01*
X113126929Y-80220306D01*
X113121698Y-80223331D01*
X112606684Y-80361994D01*
X112597804Y-80360836D01*
X112592344Y-80353738D01*
X112592179Y-80353039D01*
X112535589Y-80073318D01*
X112535589Y-80068680D01*
X112592175Y-79788980D01*
X112597174Y-79781554D01*
X112605962Y-79779835D01*
X112606684Y-79780005D01*
G37*
%TD.AperFunction*%
%TD*%
%TA.AperFunction,Conductor*%
%TO.N,Net-(U502-~{DSR})*%
G36*
X111183062Y-78276266D02*
G01*
X111190491Y-78281266D01*
X111192266Y-78289755D01*
X111101990Y-78804557D01*
X111097186Y-78812114D01*
X111090466Y-78814236D01*
X110808491Y-78814236D01*
X110800218Y-78810809D01*
X110797494Y-78806529D01*
X110610400Y-78291294D01*
X110610797Y-78282348D01*
X110617404Y-78276304D01*
X110619068Y-78275835D01*
X110897682Y-78219469D01*
X110902318Y-78219469D01*
X111183062Y-78276266D01*
G37*
%TD.AperFunction*%
%TD*%
%TA.AperFunction,Conductor*%
%TO.N,Net-(U502-~{DSR})*%
G36*
X109070564Y-82429005D02*
G01*
X109103910Y-82437983D01*
X109585579Y-82567669D01*
X109592676Y-82573128D01*
X109594236Y-82578966D01*
X109594236Y-82861033D01*
X109590809Y-82869306D01*
X109585578Y-82872331D01*
X109070564Y-83010994D01*
X109061684Y-83009836D01*
X109056224Y-83002738D01*
X109056059Y-83002039D01*
X108999469Y-82722318D01*
X108999469Y-82717680D01*
X109056055Y-82437980D01*
X109061054Y-82430554D01*
X109069842Y-82428835D01*
X109070564Y-82429005D01*
G37*
%TD.AperFunction*%
%TD*%
%TA.AperFunction,Conductor*%
%TO.N,/MCU/VDD_CP*%
G36*
X118882017Y-79076055D02*
G01*
X118889445Y-79081054D01*
X118891164Y-79089842D01*
X118890994Y-79090564D01*
X118752331Y-79605578D01*
X118746871Y-79612676D01*
X118741033Y-79614236D01*
X118458967Y-79614236D01*
X118450694Y-79610809D01*
X118447669Y-79605578D01*
X118309005Y-79090564D01*
X118310163Y-79081684D01*
X118317261Y-79076224D01*
X118317953Y-79076060D01*
X118597682Y-79019469D01*
X118602318Y-79019469D01*
X118882017Y-79076055D01*
G37*
%TD.AperFunction*%
%TD*%
%TA.AperFunction,Conductor*%
%TO.N,/MCU/VDD_CP*%
G36*
X116820462Y-85700086D02*
G01*
X117019913Y-85899537D01*
X117023340Y-85907810D01*
X117021780Y-85913648D01*
X116755660Y-86375867D01*
X116748562Y-86381327D01*
X116739682Y-86380169D01*
X116739052Y-86379778D01*
X116501265Y-86222015D01*
X116497984Y-86218734D01*
X116340221Y-85980947D01*
X116338502Y-85972159D01*
X116343502Y-85964730D01*
X116344132Y-85964339D01*
X116806353Y-85698218D01*
X116815231Y-85697061D01*
X116820462Y-85700086D01*
G37*
%TD.AperFunction*%
%TD*%
M02*
