M48
; DRILL file {KiCad 9.0.3} date 2025-11-17T09:12:31+0100
; FORMAT={-:-/ absolute / metric / decimal}
; #@! TF.CreationDate,2025-11-17T09:12:31+01:00
; #@! TF.GenerationSoftware,Kicad,Pcbnew,9.0.3
; #@! TF.FileFunction,Plated,1,4,PTH
FMAT,2
METRIC
; #@! TA.AperFunction,Plated,PTH,ViaDrill
T1C0.300
; #@! TA.AperFunction,Plated,PTH,ComponentDrill
T2C0.600
; #@! TA.AperFunction,Plated,PTH,ComponentDrill
T3C0.700
; #@! TA.AperFunction,Plated,PTH,ComponentDrill
T4C0.750
; #@! TA.AperFunction,Plated,PTH,ComponentDrill
T5C0.800
; #@! TA.AperFunction,Plated,PTH,ComponentDrill
T6C0.950
; #@! TA.AperFunction,Plated,PTH,ViaDrill
T7C1.000
; #@! TA.AperFunction,Plated,PTH,ViaDrill
T8C2.000
%
G90
G05
T1
X86.5Y-52.02
X86.75Y-71.02
X87.006Y-60.017
X90.0Y-47.52
X91.5Y-56.52
X92.5Y-64.02
X93.0Y-76.77
X93.25Y-82.27
X93.5Y-38.02
X93.5Y-44.52
X93.5Y-51.02
X93.5Y-52.82
X95.087Y-69.32
X95.5Y-94.52
X96.0Y-54.52
X96.0Y-60.02
X97.25Y-90.52
X98.0Y-79.02
X99.0Y-86.77
X99.1Y-49.42
X99.9Y-49.42
X101.0Y-44.52
X101.0Y-54.27
X101.0Y-60.52
X101.0Y-91.52
X101.15Y-67.62
X101.5Y-38.02
X101.75Y-91.52
X102.4Y-40.72
X102.4Y-41.52
X103.5Y-79.02
X103.701Y-49.92
X103.75Y-82.77
X104.0Y-73.77
X104.0Y-94.02
X104.251Y-91.692
X104.7Y-49.92
X104.75Y-51.52
X105.0Y-57.02
X105.5Y-60.77
X105.6Y-91.62
X105.7Y-75.12
X105.7Y-76.12
X105.7Y-85.42
X106.2Y-45.52
X106.25Y-86.77
X106.3Y-63.02
X106.5Y-94.02
X106.75Y-91.52
X107.0Y-47.77
X107.0Y-80.77
X108.3Y-91.82
X108.9Y-65.22
X108.9Y-67.12
X108.9Y-69.92
X109.0Y-72.02
X109.0Y-82.72
X109.2Y-88.32
X109.5Y-45.77
X109.798Y-82.044
X110.299Y-81.421
X110.5Y-49.02
X110.9Y-76.12
X110.9Y-78.22
X111.0Y-98.52
X111.3Y-43.42
X111.3Y-52.02
X111.4Y-39.52
X111.4Y-40.72
X111.5Y-55.92
X111.5Y-60.52
X111.5Y-97.02
X111.6Y-80.42
X111.7Y-53.32
X112.536Y-80.071
X112.9Y-86.72
X113.3Y-51.72
X113.44Y-38.66
X114.1Y-67.52
X114.2Y-88.42
X114.4Y-74.82
X114.4Y-79.22
X114.441Y-38.661
X114.5Y-51.72
X114.5Y-95.77
X114.745Y-86.42
X115.4Y-79.22
X115.5Y-63.02
X115.6Y-37.02
X115.7Y-50.02
X116.2Y-46.02
X116.2Y-59.02
X116.25Y-56.77
X116.5Y-39.52
X116.5Y-44.02
X116.5Y-52.52
X116.5Y-86.22
X117.3Y-82.02
X118.5Y-42.27
X118.5Y-55.27
X118.6Y-79.02
X118.8Y-88.12
X119.0Y-86.82
X119.3Y-90.52
X120.0Y-42.27
X120.0Y-48.77
X120.0Y-55.27
X121.7Y-85.52
X121.8Y-78.02
X122.5Y-87.52
X123.0Y-37.52
X123.0Y-70.02
X123.0Y-98.52
X123.4Y-82.92
X123.5Y-39.77
X123.5Y-45.27
X123.5Y-52.77
X123.5Y-58.27
X123.7Y-75.02
T4
X88.5Y-90.02
X88.5Y-92.02
X122.19Y-41.52
X122.19Y-43.52
X122.19Y-54.52
X122.19Y-56.52
T5
X88.5Y-58.02
X88.5Y-62.02
X88.5Y-66.02
T6
X88.5Y-75.52
X88.5Y-78.02
X88.5Y-80.52
T7
X114.19Y-41.71
X114.19Y-54.52
T8
X97.5Y-41.52
X114.0Y-83.02
T2
G00X100.68Y-92.865
M15
G01X100.68Y-93.965
M16
G05
G00X100.68Y-97.195
M15
G01X100.68Y-97.995
M16
G05
G00X109.32Y-92.865
M15
G01X109.32Y-93.965
M16
G05
G00X109.32Y-97.195
M15
G01X109.32Y-97.995
M16
G05
T3
G00X88.9Y-55.87
M15
G01X88.1Y-55.87
M16
G05
G00X88.9Y-68.17
M15
G01X88.1Y-68.17
M16
G05
M30
