%TF.GenerationSoftware,KiCad,Pcbnew,9.0.3*%
%TF.CreationDate,2025-11-17T09:12:33+01:00*%
%TF.ProjectId,PCB_BLE_Speaker,5043425f-424c-4455-9f53-7065616b6572,R.Casas*%
%TF.SameCoordinates,Original*%
%TF.FileFunction,Soldermask,Top*%
%TF.FilePolarity,Negative*%
%FSLAX46Y46*%
G04 Gerber Fmt 4.6, Leading zero omitted, Abs format (unit mm)*
G04 Created by KiCad (PCBNEW 9.0.3) date 2025-11-17 09:12:33*
%MOMM*%
%LPD*%
G01*
G04 APERTURE LIST*
G04 Aperture macros list*
%AMRoundRect*
0 Rectangle with rounded corners*
0 $1 Rounding radius*
0 $2 $3 $4 $5 $6 $7 $8 $9 X,Y pos of 4 corners*
0 Add a 4 corners polygon primitive as box body*
4,1,4,$2,$3,$4,$5,$6,$7,$8,$9,$2,$3,0*
0 Add four circle primitives for the rounded corners*
1,1,$1+$1,$2,$3*
1,1,$1+$1,$4,$5*
1,1,$1+$1,$6,$7*
1,1,$1+$1,$8,$9*
0 Add four rect primitives between the rounded corners*
20,1,$1+$1,$2,$3,$4,$5,0*
20,1,$1+$1,$4,$5,$6,$7,0*
20,1,$1+$1,$6,$7,$8,$9,0*
20,1,$1+$1,$8,$9,$2,$3,0*%
G04 Aperture macros list end*
%ADD10C,0.010000*%
%ADD11RoundRect,0.237500X0.300000X0.237500X-0.300000X0.237500X-0.300000X-0.237500X0.300000X-0.237500X0*%
%ADD12RoundRect,0.075000X0.075000X-0.350000X0.075000X0.350000X-0.075000X0.350000X-0.075000X-0.350000X0*%
%ADD13RoundRect,0.075000X0.350000X-0.075000X0.350000X0.075000X-0.350000X0.075000X-0.350000X-0.075000X0*%
%ADD14R,2.650000X2.650000*%
%ADD15RoundRect,0.237500X0.237500X-0.300000X0.237500X0.300000X-0.237500X0.300000X-0.237500X-0.300000X0*%
%ADD16RoundRect,0.237500X-0.237500X0.287500X-0.237500X-0.287500X0.237500X-0.287500X0.237500X0.287500X0*%
%ADD17RoundRect,0.237500X-0.300000X-0.237500X0.300000X-0.237500X0.300000X0.237500X-0.300000X0.237500X0*%
%ADD18RoundRect,0.237500X0.237500X-0.287500X0.237500X0.287500X-0.237500X0.287500X-0.237500X-0.287500X0*%
%ADD19RoundRect,0.237500X0.237500X-0.250000X0.237500X0.250000X-0.237500X0.250000X-0.237500X-0.250000X0*%
%ADD20RoundRect,0.250000X0.625000X-0.350000X0.625000X0.350000X-0.625000X0.350000X-0.625000X-0.350000X0*%
%ADD21O,1.750000X1.200000*%
%ADD22RoundRect,0.162500X0.162500X-0.617500X0.162500X0.617500X-0.162500X0.617500X-0.162500X-0.617500X0*%
%ADD23RoundRect,0.375000X0.625000X0.375000X-0.625000X0.375000X-0.625000X-0.375000X0.625000X-0.375000X0*%
%ADD24RoundRect,0.500000X0.500000X1.400000X-0.500000X1.400000X-0.500000X-1.400000X0.500000X-1.400000X0*%
%ADD25RoundRect,0.102000X-0.654000X0.654000X-0.654000X-0.654000X0.654000X-0.654000X0.654000X0.654000X0*%
%ADD26C,1.512000*%
%ADD27O,2.620000X1.412000*%
%ADD28RoundRect,0.250000X-0.300000X-0.300000X0.300000X-0.300000X0.300000X0.300000X-0.300000X0.300000X0*%
%ADD29RoundRect,0.237500X0.250000X0.237500X-0.250000X0.237500X-0.250000X-0.237500X0.250000X-0.237500X0*%
%ADD30RoundRect,0.237500X-0.250000X-0.237500X0.250000X-0.237500X0.250000X0.237500X-0.250000X0.237500X0*%
%ADD31RoundRect,0.237500X-0.287500X-0.237500X0.287500X-0.237500X0.287500X0.237500X-0.287500X0.237500X0*%
%ADD32RoundRect,0.062500X-0.350000X-0.062500X0.350000X-0.062500X0.350000X0.062500X-0.350000X0.062500X0*%
%ADD33RoundRect,0.062500X-0.062500X-0.350000X0.062500X-0.350000X0.062500X0.350000X-0.062500X0.350000X0*%
%ADD34R,1.230000X1.230000*%
%ADD35C,0.650000*%
%ADD36RoundRect,0.150000X-0.150000X-0.425000X0.150000X-0.425000X0.150000X0.425000X-0.150000X0.425000X0*%
%ADD37RoundRect,0.075000X-0.075000X-0.500000X0.075000X-0.500000X0.075000X0.500000X-0.075000X0.500000X0*%
%ADD38O,1.000000X2.100000*%
%ADD39O,1.000000X1.800000*%
%ADD40RoundRect,0.250000X0.725000X-0.600000X0.725000X0.600000X-0.725000X0.600000X-0.725000X-0.600000X0*%
%ADD41O,1.950000X1.700000*%
%ADD42RoundRect,0.102000X-1.250000X-0.200000X1.250000X-0.200000X1.250000X0.200000X-1.250000X0.200000X0*%
%ADD43RoundRect,0.102000X-0.200000X-0.400000X0.200000X-0.400000X0.200000X0.400000X-0.200000X0.400000X0*%
%ADD44RoundRect,0.102000X-0.200000X-1.250000X0.200000X-1.250000X0.200000X1.250000X-0.200000X1.250000X0*%
%ADD45RoundRect,0.102000X-1.250000X-0.350000X1.250000X-0.350000X1.250000X0.350000X-1.250000X0.350000X0*%
%ADD46RoundRect,0.102000X-0.725000X-0.725000X0.725000X-0.725000X0.725000X0.725000X-0.725000X0.725000X0*%
%ADD47RoundRect,0.375000X-0.625000X-0.375000X0.625000X-0.375000X0.625000X0.375000X-0.625000X0.375000X0*%
%ADD48RoundRect,0.500000X-0.500000X-1.400000X0.500000X-1.400000X0.500000X1.400000X-0.500000X1.400000X0*%
%ADD49RoundRect,0.250000X1.500000X0.650000X-1.500000X0.650000X-1.500000X-0.650000X1.500000X-0.650000X0*%
%ADD50RoundRect,0.250000X-0.600000X-0.250000X0.600000X-0.250000X0.600000X0.250000X-0.600000X0.250000X0*%
%ADD51RoundRect,0.150000X-0.700000X-0.150000X0.700000X-0.150000X0.700000X0.150000X-0.700000X0.150000X0*%
%ADD52RoundRect,0.250000X-0.625000X0.350000X-0.625000X-0.350000X0.625000X-0.350000X0.625000X0.350000X0*%
G04 APERTURE END LIST*
D10*
%TO.C,U501*%
X96350000Y-40370000D02*
X94700000Y-40370000D01*
X94700000Y-39370000D01*
X95350000Y-38720000D01*
X96350000Y-38720000D01*
X96350000Y-40370000D01*
G36*
X96350000Y-40370000D02*
G01*
X94700000Y-40370000D01*
X94700000Y-39370000D01*
X95350000Y-38720000D01*
X96350000Y-38720000D01*
X96350000Y-40370000D01*
G37*
%TD*%
D11*
%TO.C,C408*%
X115052500Y-47520000D03*
X113327500Y-47520000D03*
%TD*%
D12*
%TO.C,U502*%
X112750000Y-84970000D03*
X113250000Y-84970000D03*
X113750000Y-84970000D03*
X114250000Y-84970000D03*
X114750000Y-84970000D03*
X115250000Y-84970000D03*
D13*
X115950000Y-84270000D03*
X115950000Y-83770000D03*
X115950000Y-83270000D03*
X115950000Y-82770000D03*
X115950000Y-82270000D03*
X115950000Y-81770000D03*
D12*
X115250000Y-81070000D03*
X114750000Y-81070000D03*
X114250000Y-81070000D03*
X113750000Y-81070000D03*
X113250000Y-81070000D03*
X112750000Y-81070000D03*
D13*
X112050000Y-81770000D03*
X112050000Y-82270000D03*
X112050000Y-82770000D03*
X112050000Y-83270000D03*
X112050000Y-83770000D03*
X112050000Y-84270000D03*
D14*
X114000000Y-83020000D03*
%TD*%
D15*
%TO.C,C202*%
X98500000Y-94382500D03*
X98500000Y-92657500D03*
%TD*%
D16*
%TO.C,L403*%
X118690000Y-44145000D03*
X118690000Y-45895000D03*
%TD*%
D11*
%TO.C,C407*%
X115052500Y-46020000D03*
X113327500Y-46020000D03*
%TD*%
D17*
%TO.C,C501*%
X118637500Y-84020000D03*
X120362500Y-84020000D03*
%TD*%
D11*
%TO.C,C405*%
X115052500Y-60520000D03*
X113327500Y-60520000D03*
%TD*%
D18*
%TO.C,L404*%
X118690000Y-40395000D03*
X118690000Y-38645000D03*
%TD*%
D17*
%TO.C,C502*%
X118637500Y-85530000D03*
X120362500Y-85530000D03*
%TD*%
D19*
%TO.C,R503*%
X113800000Y-77932500D03*
X113800000Y-76107500D03*
%TD*%
D20*
%TO.C,J102*%
X122190000Y-43520000D03*
D21*
X122190000Y-41520000D03*
%TD*%
D22*
%TO.C,U301*%
X96075000Y-71370000D03*
X97025000Y-71370000D03*
X97975000Y-71370000D03*
X97975000Y-68670000D03*
X96075000Y-68670000D03*
%TD*%
D15*
%TO.C,C506*%
X88500000Y-39020000D03*
X88500000Y-37295000D03*
%TD*%
D23*
%TO.C,Q301*%
X102150000Y-79020000D03*
D24*
X95850000Y-79020000D03*
D23*
X102150000Y-81320000D03*
X102150000Y-76720000D03*
%TD*%
D25*
%TO.C,S501*%
X88500000Y-58020000D03*
D26*
X88500000Y-62020000D03*
X88500000Y-66020000D03*
D27*
X88500000Y-55870000D03*
X88500000Y-68170000D03*
%TD*%
D28*
%TO.C,D202*%
X97600000Y-88020000D03*
X100400000Y-88020000D03*
%TD*%
D29*
%TO.C,R502*%
X120412500Y-82020000D03*
X118587500Y-82020000D03*
%TD*%
D30*
%TO.C,R516*%
X120587500Y-89020000D03*
X122412500Y-89020000D03*
%TD*%
%TO.C,R514*%
X120587500Y-75020000D03*
X122412500Y-75020000D03*
%TD*%
D29*
%TO.C,R517*%
X120412500Y-80020000D03*
X118587500Y-80020000D03*
%TD*%
D19*
%TO.C,R501*%
X88000000Y-46432500D03*
X88000000Y-44607500D03*
%TD*%
D18*
%TO.C,L402*%
X118690000Y-53395000D03*
X118690000Y-51645000D03*
%TD*%
D31*
%TO.C,D501*%
X117125000Y-75020000D03*
X118875000Y-75020000D03*
%TD*%
D15*
%TO.C,C301*%
X100200000Y-69382500D03*
X100200000Y-67657500D03*
%TD*%
D32*
%TO.C,U402*%
X112752500Y-40960000D03*
X112752500Y-41460000D03*
X112752500Y-41960000D03*
X112752500Y-42460000D03*
D33*
X113440000Y-43147500D03*
X113940000Y-43147500D03*
X114440000Y-43147500D03*
X114940000Y-43147500D03*
D32*
X115627500Y-42460000D03*
X115627500Y-41960000D03*
X115627500Y-41460000D03*
X115627500Y-40960000D03*
D33*
X114940000Y-40272500D03*
X114440000Y-40272500D03*
X113940000Y-40272500D03*
X113440000Y-40272500D03*
D34*
X114190000Y-41710000D03*
%TD*%
D11*
%TO.C,C508*%
X109362500Y-63020000D03*
X107637500Y-63020000D03*
%TD*%
D29*
%TO.C,R510*%
X109912500Y-86820000D03*
X108087500Y-86820000D03*
%TD*%
D11*
%TO.C,C201*%
X100362500Y-90520000D03*
X98637500Y-90520000D03*
%TD*%
D30*
%TO.C,R401*%
X108277500Y-57520000D03*
X110102500Y-57520000D03*
%TD*%
D29*
%TO.C,R301*%
X96912500Y-63920000D03*
X95087500Y-63920000D03*
%TD*%
D32*
%TO.C,U401*%
X112752500Y-53770000D03*
X112752500Y-54270000D03*
X112752500Y-54770000D03*
X112752500Y-55270000D03*
D33*
X113440000Y-55957500D03*
X113940000Y-55957500D03*
X114440000Y-55957500D03*
X114940000Y-55957500D03*
D32*
X115627500Y-55270000D03*
X115627500Y-54770000D03*
X115627500Y-54270000D03*
X115627500Y-53770000D03*
D33*
X114940000Y-53082500D03*
X114440000Y-53082500D03*
X113940000Y-53082500D03*
X113440000Y-53082500D03*
D34*
X114190000Y-54520000D03*
%TD*%
D30*
%TO.C,R508*%
X120587500Y-92020000D03*
X122412500Y-92020000D03*
%TD*%
D15*
%TO.C,C505*%
X87000000Y-39020000D03*
X87000000Y-37295000D03*
%TD*%
D30*
%TO.C,R201*%
X112675000Y-98520000D03*
X114500000Y-98520000D03*
%TD*%
D11*
%TO.C,C403*%
X118552500Y-47520000D03*
X116827500Y-47520000D03*
%TD*%
D30*
%TO.C,R513*%
X95087500Y-50820000D03*
X96912500Y-50820000D03*
%TD*%
D31*
%TO.C,D302*%
X98675000Y-63920000D03*
X100425000Y-63920000D03*
%TD*%
D19*
%TO.C,R505*%
X115300000Y-77932500D03*
X115300000Y-76107500D03*
%TD*%
D35*
%TO.C,J201*%
X102110000Y-93915000D03*
X107890000Y-93915000D03*
D36*
X101800000Y-92840000D03*
X102600000Y-92840000D03*
D37*
X103750000Y-92840000D03*
X104750000Y-92840000D03*
X105250000Y-92840000D03*
X106250000Y-92840000D03*
D36*
X107400000Y-92840000D03*
X108200000Y-92840000D03*
X108200000Y-92840000D03*
X107400000Y-92840000D03*
D37*
X106750000Y-92840000D03*
X105750000Y-92840000D03*
X104250000Y-92840000D03*
X103250000Y-92840000D03*
D36*
X102600000Y-92840000D03*
X101800000Y-92840000D03*
D38*
X100680000Y-93415000D03*
D39*
X100680000Y-97595000D03*
D38*
X109320000Y-93415000D03*
D39*
X109320000Y-97595000D03*
%TD*%
D30*
%TO.C,R511*%
X118587500Y-78020000D03*
X120412500Y-78020000D03*
%TD*%
D17*
%TO.C,C402*%
X116827500Y-50020000D03*
X118552500Y-50020000D03*
%TD*%
D11*
%TO.C,C406*%
X115052500Y-59030000D03*
X113327500Y-59030000D03*
%TD*%
D40*
%TO.C,J103*%
X88500000Y-80520000D03*
D41*
X88500000Y-78020000D03*
X88500000Y-75520000D03*
%TD*%
D29*
%TO.C,R504*%
X122412500Y-90520000D03*
X120587500Y-90520000D03*
%TD*%
D42*
%TO.C,U501*%
X90750000Y-37520000D03*
X90750000Y-38320000D03*
X90750000Y-45520000D03*
D43*
X94300000Y-36620000D03*
D44*
X94300000Y-47270000D03*
D43*
X95100000Y-36620000D03*
X95900000Y-36620000D03*
X96700000Y-36620000D03*
X97500000Y-36620000D03*
X98300000Y-36620000D03*
X99100000Y-36620000D03*
X99900000Y-36620000D03*
X100700000Y-36620000D03*
X101500000Y-36620000D03*
X102300000Y-36620000D03*
D42*
X90750000Y-39120000D03*
X90750000Y-39920000D03*
X90750000Y-40720000D03*
X90750000Y-41520000D03*
X90750000Y-42320000D03*
X90750000Y-43120000D03*
X90750000Y-43920000D03*
X90750000Y-44720000D03*
D44*
X92700000Y-47270000D03*
X93500000Y-47270000D03*
X95100000Y-47270000D03*
X95900000Y-47270000D03*
X96700000Y-47270000D03*
X97500000Y-47270000D03*
X98300000Y-47270000D03*
X99100000Y-47270000D03*
X99900000Y-47270000D03*
X100700000Y-47270000D03*
X101500000Y-47270000D03*
X102300000Y-47270000D03*
D42*
X104250000Y-45520000D03*
X104250000Y-44720000D03*
X104250000Y-43920000D03*
X104250000Y-43120000D03*
X104250000Y-42320000D03*
X104250000Y-41520000D03*
X104250000Y-40720000D03*
X104250000Y-39920000D03*
X104250000Y-39120000D03*
X104250000Y-38320000D03*
X104250000Y-37520000D03*
D45*
X90700000Y-36570000D03*
X90700000Y-46470000D03*
D43*
X92700000Y-36620000D03*
X93500000Y-36620000D03*
D46*
X95525000Y-41520000D03*
X95525000Y-43495000D03*
X97500000Y-39545000D03*
X97500000Y-41520000D03*
X97500000Y-43495000D03*
X99475000Y-39545000D03*
X99475000Y-41520000D03*
X99475000Y-43495000D03*
D45*
X104300000Y-36570000D03*
X104300000Y-46470000D03*
%TD*%
D47*
%TO.C,U503*%
X105850000Y-65220000D03*
X105850000Y-67520000D03*
D48*
X112150000Y-67520000D03*
D47*
X105850000Y-69820000D03*
%TD*%
D17*
%TO.C,C507*%
X106137500Y-72020000D03*
X107862500Y-72020000D03*
%TD*%
%TO.C,C404*%
X116827500Y-37020000D03*
X118552500Y-37020000D03*
%TD*%
D49*
%TO.C,D301*%
X101500000Y-85020000D03*
X96500000Y-85020000D03*
%TD*%
D17*
%TO.C,C503*%
X115637500Y-87520000D03*
X117362500Y-87520000D03*
%TD*%
D20*
%TO.C,J101*%
X122190000Y-56520000D03*
D21*
X122190000Y-54520000D03*
%TD*%
D11*
%TO.C,C401*%
X118552500Y-60520000D03*
X116827500Y-60520000D03*
%TD*%
D30*
%TO.C,R404*%
X108277500Y-44520000D03*
X110102500Y-44520000D03*
%TD*%
D50*
%TO.C,D201*%
X103800000Y-88770000D03*
D51*
X103800000Y-90470000D03*
X106800000Y-90470000D03*
X106800000Y-88570000D03*
%TD*%
D17*
%TO.C,C504*%
X115637500Y-89000000D03*
X117362500Y-89000000D03*
%TD*%
D30*
%TO.C,R515*%
X120587500Y-73020000D03*
X122412500Y-73020000D03*
%TD*%
D29*
%TO.C,R507*%
X109912500Y-83820000D03*
X108087500Y-83820000D03*
%TD*%
D19*
%TO.C,R506*%
X112300000Y-77932500D03*
X112300000Y-76107500D03*
%TD*%
D11*
%TO.C,C302*%
X98000000Y-73520000D03*
X96275000Y-73520000D03*
%TD*%
D30*
%TO.C,R403*%
X108277500Y-52020000D03*
X110102500Y-52020000D03*
%TD*%
D31*
%TO.C,D502*%
X117125000Y-73020000D03*
X118875000Y-73020000D03*
%TD*%
D30*
%TO.C,R406*%
X108277500Y-39520000D03*
X110102500Y-39520000D03*
%TD*%
D29*
%TO.C,R302*%
X96912500Y-66020000D03*
X95087500Y-66020000D03*
%TD*%
D16*
%TO.C,L401*%
X118690000Y-57145000D03*
X118690000Y-58895000D03*
%TD*%
D30*
%TO.C,R202*%
X112675000Y-97020000D03*
X114500000Y-97020000D03*
%TD*%
D29*
%TO.C,R303*%
X95112500Y-88020000D03*
X93287500Y-88020000D03*
%TD*%
D19*
%TO.C,R203*%
X97000000Y-94432500D03*
X97000000Y-92607500D03*
%TD*%
D52*
%TO.C,J104*%
X88500000Y-90020000D03*
D21*
X88500000Y-92020000D03*
%TD*%
D30*
%TO.C,R402*%
X108277500Y-54020000D03*
X110102500Y-54020000D03*
%TD*%
D29*
%TO.C,R509*%
X109912500Y-85320000D03*
X108087500Y-85320000D03*
%TD*%
D30*
%TO.C,R405*%
X108277500Y-41520000D03*
X110102500Y-41520000D03*
%TD*%
D29*
%TO.C,R512*%
X96912500Y-52820000D03*
X95087500Y-52820000D03*
%TD*%
M02*
